<svg width="847" height="908" viewBox="0 0 847 908" fill="none" xmlns="http://www.w3.org/2000/svg">
<path d="M742.307 6.01621L324.717 8.81377C319.196 8.85076 314.979 13.1515 315.078 18.643L320.277 305.572C320.386 311.591 325.601 316.653 331.652 316.612L749.242 313.815C754.763 313.778 758.981 309.477 758.881 303.986L753.682 17.0559C753.573 11.0375 748.357 5.97568 742.307 6.01621Z" fill="#E9EAEE" stroke="black" stroke-width="3"/>
<mask id="mask0_647_682" style="mask-type:alpha" maskUnits="userSpaceOnUse" x="313" y="4" width="445" height="312">
<path d="M738.884 5.89707L324.658 8.67173C319.138 8.70871 314.925 13.009 315.028 18.5003L320.391 302.609C320.504 308.628 325.724 313.69 331.775 313.65L746.002 310.875C751.522 310.838 755.735 306.538 755.632 301.047L750.269 16.9382C750.155 10.9192 744.935 5.85654 738.884 5.89707Z" fill="#E7EFFC" stroke="black" stroke-width="3"/>
</mask>
<g mask="url(#mask0_647_682)">
<path d="M611.267 111.603C611.257 115.211 609.3 118.166 606.885 118.17L428.398 118.425C427.986 114.052 427.617 109.678 427.205 105.305L606.921 105.048C608.15 105.046 609.249 105.774 610.009 106.975C610.811 108.177 611.272 109.816 611.267 111.603Z" fill="#465173"/>
<path d="M414.204 119.37L345.564 119.455C344.134 119.457 342.836 118.701 341.928 117.454C340.977 116.206 340.416 114.503 340.42 112.649C340.426 108.902 342.728 105.833 345.588 105.83L412.798 105.746C413.267 110.288 413.735 114.829 414.204 119.37Z" fill="#465173"/>
<path d="M526.199 172.099L356.404 172.351C355.07 172.353 353.86 171.662 353.014 170.562C352.128 169.462 351.608 167.953 351.613 166.285C351.623 162.919 353.773 160.178 356.441 160.175L526.034 159.923C526.102 163.982 526.13 168.041 526.239 172.099L526.199 172.099Z" fill="#465173"/>
<path d="M629.217 165.189C629.209 168.637 627.344 171.47 625.041 171.473L546.736 171.576C546.664 167.379 546.592 163.183 546.561 158.986L625.068 158.883C626.24 158.882 627.289 159.596 628.014 160.734C628.779 161.871 629.22 163.432 629.217 165.189Z" fill="#465173"/>
<rect x="0.950895" y="0.949454" width="60.4749" height="26.726" rx="13.363" transform="matrix(0.999934 -0.000607121 0.00100865 1.00003 391.528 97.9986)" fill="#E74F4F" stroke="black" stroke-width="1.9"/>
<rect x="0.950895" y="0.949454" width="60.4749" height="26.726" rx="13.363" transform="matrix(0.999934 -0.000607121 0.00100865 1.00003 492.727 152.325)" fill="#E74F4F" stroke="black" stroke-width="1.9"/>
</g>
<path d="M752.639 52.8284L754.07 52.8387L754.072 51.4144L754.139 17.739C754.151 11.7923 749.165 6.78378 743.191 6.74076L325.229 3.73055C319.635 3.69026 315.224 8.04006 315.213 13.6085L315.145 48.1143L315.142 49.6774L316.712 49.6887L752.639 52.8284Z" fill="#465173" stroke="black" stroke-width="3"/>
<ellipse cx="6.384" cy="5.94376" rx="6.384" ry="5.94376" transform="matrix(0.488853 -0.872521 0.870233 0.492295 335.608 32.2441)" fill="#E74F4F"/>
<ellipse cx="6.384" cy="5.94376" rx="6.384" ry="5.94376" transform="matrix(0.488853 -0.872521 0.870233 0.492295 354.212 32.1055)" fill="#FFDA68"/>
<ellipse cx="6.42834" cy="6.07595" rx="6.42834" ry="6.07595" transform="matrix(0.197252 0.980254 -0.981283 0.192893 386.95 21.8672)" fill="#63B1AA"/>
<path d="M248.631 646.465L266.587 648.767L254.582 851.31C254.3 856.065 250.362 859.777 245.598 859.777L231.259 859.777L248.631 646.465Z" fill="black"/>
<path d="M367.827 646.465L349.871 648.767L361.876 851.31C362.158 856.065 366.096 859.777 370.86 859.777L385.199 859.777L367.827 646.465Z" fill="black"/>
<path d="M245.08 791.111H371.86L372.605 809.111H243.605L245.08 791.111Z" fill="black" stroke="black" stroke-width="1.9" stroke-linejoin="round"/>
<path fill-rule="evenodd" clip-rule="evenodd" d="M249.365 822.648C246.587 822.292 245.498 822.153 245.161 826.531C244.709 832.406 242.449 848.674 241.998 851.385C241.958 851.625 241.921 851.899 241.881 852.202C241.468 855.321 240.667 861.367 231.604 861.779C223.651 862.14 218.348 860.724 216.691 859.971V856.356L219.855 854.096C222.746 825.187 227.669 744.33 230.982 689.906C232.675 662.094 233.949 641.184 234.315 637.639C235.671 624.534 241.832 609.621 254.451 609.621H361.846C379.429 609.621 380.559 622.092 381.66 634.247C381.763 635.384 381.866 636.518 381.982 637.639C382.349 641.184 383.622 662.094 385.315 689.906C388.629 744.33 393.551 825.187 396.442 854.096L399.606 856.356V859.971C397.949 860.724 392.647 862.14 384.693 861.779C375.63 861.367 374.829 855.321 374.416 852.202C374.376 851.899 374.339 851.625 374.3 851.385C373.848 848.674 371.588 832.406 371.136 826.531C370.731 821.258 280.124 822.538 257.643 822.856C255.077 822.892 253.399 822.916 252.843 822.916C251.461 822.916 250.314 822.769 249.365 822.648ZM249.152 793.89L255.855 670.731C256.375 661.184 264.268 653.709 273.829 653.709H341.236C350.862 653.709 358.784 661.282 359.218 670.898L364.769 793.927C364.871 796.205 363.052 798.108 360.773 798.108H253.146C250.852 798.108 249.028 796.181 249.152 793.89Z" fill="#E74F4F"/>
<path d="M245.161 826.531L244.214 826.458L244.214 826.458L245.161 826.531ZM249.365 822.648L249.244 823.59L249.244 823.59L249.365 822.648ZM241.998 851.385L241.06 851.229L241.06 851.229L241.998 851.385ZM241.881 852.202L242.823 852.326L242.823 852.326L241.881 852.202ZM231.604 861.779L231.561 860.83L231.561 860.83L231.604 861.779ZM216.691 859.971H215.741V860.583L216.298 860.836L216.691 859.971ZM216.691 856.356L216.139 855.583L215.741 855.867V856.356H216.691ZM219.855 854.096L220.407 854.869L220.757 854.619L220.8 854.191L219.855 854.096ZM230.982 689.906L231.93 689.964L230.982 689.906ZM234.315 637.639L235.26 637.736L235.26 637.736L234.315 637.639ZM381.66 634.247L382.606 634.161L382.606 634.161L381.66 634.247ZM381.982 637.639L381.037 637.736L381.037 637.736L381.982 637.639ZM385.315 689.906L384.367 689.964L384.367 689.964L385.315 689.906ZM396.442 854.096L395.497 854.191L395.54 854.619L395.89 854.869L396.442 854.096ZM399.606 856.356H400.556V855.867L400.158 855.583L399.606 856.356ZM399.606 859.971L399.999 860.836L400.556 860.583V859.971H399.606ZM384.693 861.779L384.736 860.83L384.736 860.83L384.693 861.779ZM374.416 852.202L375.358 852.077L375.358 852.077L374.416 852.202ZM374.3 851.385L375.237 851.229L375.237 851.229L374.3 851.385ZM371.136 826.531L370.189 826.604L370.189 826.604L371.136 826.531ZM257.643 822.856L257.629 821.906L257.629 821.906L257.643 822.856ZM255.855 670.731L254.907 670.68L254.907 670.68L255.855 670.731ZM249.152 793.89L250.101 793.942L250.101 793.942L249.152 793.89ZM359.218 670.898L360.167 670.855L360.167 670.855L359.218 670.898ZM364.769 793.927L363.819 793.97L363.819 793.97L364.769 793.927ZM246.108 826.604C246.19 825.535 246.314 824.811 246.473 824.319C246.629 823.836 246.792 823.664 246.896 823.59C247.004 823.514 247.189 823.443 247.594 823.439C248.012 823.434 248.528 823.498 249.244 823.59L249.485 821.705C248.813 821.619 248.151 821.533 247.573 821.539C246.982 821.545 246.353 821.647 245.799 822.039C245.242 822.433 244.895 823.025 244.665 823.735C244.438 824.438 244.3 825.337 244.214 826.458L246.108 826.604ZM242.935 851.541C243.389 848.817 245.653 832.518 246.108 826.604L244.214 826.458C243.765 832.293 241.51 848.531 241.06 851.229L242.935 851.541ZM242.823 852.326C242.864 852.02 242.898 851.762 242.935 851.541L241.06 851.229C241.017 851.487 240.979 851.779 240.939 852.077L242.823 852.326ZM231.647 862.728C236.415 862.511 239.177 860.789 240.761 858.555C242.299 856.386 242.619 853.867 242.823 852.326L240.939 852.077C240.73 853.655 240.443 855.719 239.211 857.456C238.026 859.127 235.857 860.634 231.561 860.83L231.647 862.728ZM216.298 860.836C218.128 861.668 223.589 863.094 231.647 862.728L231.561 860.83C223.712 861.186 218.569 859.781 217.085 859.106L216.298 860.836ZM215.741 856.356V859.971H217.641V856.356H215.741ZM219.302 853.323L216.139 855.583L217.244 857.129L220.407 854.869L219.302 853.323ZM230.034 689.849C226.719 744.286 221.798 825.116 218.909 854.002L220.8 854.191C223.693 825.258 228.618 744.374 231.93 689.964L230.034 689.849ZM233.37 637.541C233.001 641.113 231.726 662.058 230.034 689.849L231.93 689.964C233.625 662.13 234.896 641.256 235.26 637.736L233.37 637.541ZM254.451 608.671C247.699 608.671 242.741 612.682 239.349 618.219C235.965 623.744 234.057 630.899 233.37 637.541L235.26 637.736C235.929 631.274 237.78 624.419 240.97 619.212C244.152 614.017 248.584 610.571 254.451 610.571V608.671ZM361.846 608.671H254.451V610.571H361.846V608.671ZM382.606 634.161C382.061 628.143 381.499 621.759 378.761 616.909C377.372 614.45 375.421 612.371 372.645 610.918C369.879 609.47 366.351 608.671 361.846 608.671V610.571C366.132 610.571 369.338 611.331 371.764 612.601C374.179 613.866 375.877 615.665 377.106 617.843C379.604 622.266 380.158 628.195 380.714 634.332L382.606 634.161ZM382.927 637.541C382.812 636.427 382.709 635.299 382.606 634.161L380.714 634.332C380.817 635.468 380.92 636.608 381.037 637.736L382.927 637.541ZM386.263 689.849C384.571 662.058 383.296 641.113 382.927 637.541L381.037 637.736C381.401 641.256 382.672 662.13 384.367 689.964L386.263 689.849ZM397.388 854.002C394.499 825.116 389.578 744.286 386.263 689.849L384.367 689.964C387.679 744.374 392.604 825.258 395.497 854.191L397.388 854.002ZM400.158 855.583L396.995 853.323L395.89 854.869L399.053 857.129L400.158 855.583ZM400.556 859.971V856.356H398.656V859.971H400.556ZM384.65 862.728C392.708 863.094 398.169 861.668 399.999 860.836L399.213 859.106C397.728 859.781 392.585 861.186 384.736 860.83L384.65 862.728ZM373.474 852.326C373.678 853.867 373.998 856.386 375.536 858.555C377.12 860.789 379.883 862.511 384.65 862.728L384.736 860.83C380.44 860.634 378.271 859.127 377.086 857.456C375.854 855.719 375.567 853.655 375.358 852.077L373.474 852.326ZM373.362 851.541C373.399 851.762 373.433 852.02 373.474 852.326L375.358 852.077C375.318 851.779 375.28 851.487 375.237 851.229L373.362 851.541ZM370.189 826.604C370.644 832.518 372.908 848.817 373.362 851.541L375.237 851.229C374.787 848.531 372.532 832.293 372.083 826.458L370.189 826.604ZM257.656 823.806C268.898 823.647 297.158 823.248 322.657 823.547C335.409 823.696 347.453 824.021 356.328 824.635C360.77 824.943 364.388 825.321 366.894 825.781C368.155 826.011 369.084 826.254 369.685 826.498C369.988 826.621 370.155 826.723 370.233 826.788C370.315 826.855 370.204 826.798 370.189 826.604L372.083 826.458C372.043 825.934 371.731 825.56 371.444 825.323C371.154 825.083 370.787 824.894 370.399 824.737C369.617 824.42 368.536 824.15 367.236 823.912C364.622 823.433 360.919 823.049 356.459 822.74C347.528 822.121 335.439 821.797 322.679 821.647C297.153 821.347 268.869 821.747 257.629 821.906L257.656 823.806ZM252.843 823.866C253.407 823.866 255.096 823.842 257.656 823.806L257.629 821.906C255.058 821.942 253.39 821.966 252.843 821.966V823.866ZM249.244 823.59C250.195 823.711 251.395 823.866 252.843 823.866V821.966C251.528 821.966 250.434 821.827 249.485 821.705L249.244 823.59ZM254.907 670.68L248.204 793.839L250.101 793.942L256.804 670.783L254.907 670.68ZM273.829 652.759C263.763 652.759 255.454 660.629 254.907 670.68L256.804 670.783C257.296 661.74 264.772 654.659 273.829 654.659V652.759ZM341.236 652.759H273.829V654.659H341.236V652.759ZM360.167 670.855C359.71 660.732 351.37 652.759 341.236 652.759V654.659C350.354 654.659 357.858 661.833 358.269 670.941L360.167 670.855ZM365.718 793.885L360.167 670.855L358.269 670.941L363.819 793.97L365.718 793.885ZM360.773 799.058C363.594 799.058 365.845 796.703 365.718 793.885L363.819 793.97C363.898 795.707 362.511 797.158 360.773 797.158V799.058ZM253.146 799.058H360.773V797.158H253.146V799.058ZM248.204 793.839C248.049 796.674 250.307 799.058 253.146 799.058V797.158C251.397 797.158 250.006 795.689 250.101 793.942L248.204 793.839Z" fill="black"/>
<path d="M372.605 623.111C372.343 624.578 370.01 627.671 362.773 628.311C355.537 628.951 295.258 630.445 266.023 631.111C257.764 631.111 248.325 628.311 243.605 625.111" stroke="black" stroke-width="1.9" stroke-linejoin="round"/>
<path d="M315.458 619.88C315.458 619.88 315.456 619.882 315.451 619.886C315.455 619.882 315.458 619.88 315.458 619.88ZM312.441 619.913C313.327 620.019 314.048 620.147 314.586 620.286C314.06 620.464 313.35 620.644 312.474 620.813C310.274 621.239 307.191 621.568 303.755 621.692C300.318 621.816 297.22 621.71 294.995 621.444C294.109 621.338 293.388 621.21 292.851 621.07C293.377 620.892 294.086 620.713 294.963 620.543C297.163 620.118 300.245 619.788 303.682 619.664C307.118 619.54 310.216 619.647 312.441 619.913ZM291.951 620.728C291.951 620.728 291.954 620.73 291.958 620.734C291.953 620.73 291.951 620.728 291.951 620.728ZM291.978 621.477C291.978 621.477 291.98 621.474 291.985 621.47C291.981 621.474 291.978 621.477 291.978 621.477ZM315.478 620.623C315.483 620.627 315.485 620.629 315.485 620.629C315.485 620.629 315.482 620.627 315.478 620.623Z" fill="white" stroke="black" stroke-width="1.9"/>
<path d="M544.915 795.136C538.402 794.862 527.76 783.961 520.64 774.402L496.825 773.401L495.359 808.287C502.666 808.295 519.174 809.288 538.483 810.099C566.81 811.29 553.926 795.515 544.915 795.136Z" fill="#465173" stroke="black" stroke-width="2.45571" stroke-linecap="round" stroke-linejoin="round"/>
<path d="M498.924 794.473C491.671 794.168 479.736 784.048 471.731 775.193L445.21 774.078L439.999 806.011C448.134 806.078 470.382 807.288 491.885 808.192C513.709 809.109 508.959 794.894 498.924 794.473Z" fill="#465173" stroke="black" stroke-width="2.45571" stroke-linecap="round" stroke-linejoin="round"/>
<path d="M242.748 604.791C232.128 562.892 250.651 539.49 261.24 533.026L334.932 528.721C364.379 544.935 465.965 556.289 482.988 596.176C502.702 642.364 500.379 719.405 532.314 772.738L497.959 776.992L502.779 785.029L420.057 789.386C420.592 705.782 415.157 647.224 393.473 639.419C350.913 624.099 256.681 641.504 242.748 604.791Z" fill="#BABECB" stroke="black" stroke-width="2.45571" stroke-linecap="round" stroke-linejoin="round"/>
<path d="M287.987 556.357C284.915 568.072 274.23 589.09 256.064 579.443" stroke="black" stroke-width="2.45571" stroke-linecap="round" stroke-linejoin="round"/>
<path d="M497.959 776.991L505.104 775.884C505.104 775.884 482.106 723.622 478.683 667.927C472.764 625.038 462.603 614.647 452.204 609.158C452.16 609.134 452.137 609.122 452.137 609.122C452.159 609.134 452.182 609.146 452.204 609.158C453.578 609.901 475.585 622.729 478.056 682.857C480.606 744.925 497.959 776.991 497.959 776.991Z" fill="black"/>
<path d="M312.601 569.073C337.811 578.716 424.531 590.869 452.137 609.122M452.137 609.122C452.137 609.122 475.506 620.788 478.056 682.857C480.606 744.925 497.959 776.991 497.959 776.991L505.104 775.884C505.104 775.884 482.106 723.622 478.683 667.927C472.752 624.945 462.559 614.602 452.137 609.122Z" stroke="black" stroke-width="2.45571" stroke-linecap="round" stroke-linejoin="round"/>
<path d="M299.996 370.704C341.156 376.315 356.665 366.402 368.253 362.577C368.605 380.721 381.62 398.497 386.478 406.032C370.226 411.041 335.746 407.565 320.538 405.201C345.509 451.269 351.683 505.472 351.35 533.918C325.99 532.852 306.525 535.181 280.494 538.073C255.15 540.889 245.055 533.978 233.756 530.916C246.435 524.722 252.033 480.802 253.154 454.114C245.596 449.269 226.362 445.226 213.584 441.455C223.13 411.327 255.155 375.719 269.975 361.68L299.996 370.704Z" fill="#465173"/>
<path d="M253.154 454.114C245.596 449.269 226.362 445.226 213.584 441.455C223.13 411.327 255.155 375.719 269.975 361.68L299.996 370.704C341.156 376.315 356.665 366.402 368.253 362.577C368.605 380.721 381.62 398.497 386.478 406.032C370.226 411.041 335.746 407.565 320.538 405.201M253.154 454.114C252.033 480.802 246.435 524.722 233.756 530.916C245.055 533.978 255.15 540.889 280.494 538.073C306.525 535.181 325.99 532.852 351.35 533.918C351.683 505.472 345.509 451.269 320.538 405.201M253.154 454.114L265.796 461.114C266.8 437.242 267.695 415.935 271.066 397.301M320.538 405.201C318.611 401.498 314.052 396.108 311.808 393.21" stroke="black" stroke-width="2.45571" stroke-linecap="round" stroke-linejoin="round"/>
<path d="M345.539 533.675C353.078 514.329 343.076 474.281 339.837 453.878C345.705 474.305 351.366 513.007 351.995 533.947L345.539 533.675Z" fill="black" stroke="black" stroke-width="2.45571" stroke-linecap="round" stroke-linejoin="round"/>
<path d="M387.796 405.442C390.4 405.034 391.087 396.31 390.218 391.314C387.609 391.851 380.574 388.34 377.319 388.85C379.066 393.452 385.192 405.85 387.796 405.442Z" fill="black" stroke="black" stroke-width="2.45571" stroke-linecap="round" stroke-linejoin="round"/>
<path d="M214.051 441.496C218.245 449.434 233.892 477.257 265.616 461.157C249.264 450.091 226.345 441.366 214.051 441.496Z" fill="black" stroke="black" stroke-width="2.45571" stroke-linecap="round" stroke-linejoin="round"/>
<path d="M404.043 342.096C402.124 350.812 380.693 359.01 368.899 362.61C368.313 376.557 376.917 387.31 381.265 391.59C389.013 391.915 423.883 377.857 427.872 359.914C430.116 349.821 430.463 288.012 428.178 260.318C434.179 256.043 430.766 244.904 429.046 239.657C427.67 235.459 418.5 239.214 414.087 241.615C408.119 229.722 395.193 232.175 398.835 235.153C406.338 241.29 406.408 249.917 407.652 256.222C413.3 260.34 406.441 331.201 404.043 342.096Z" fill="#F5B896" stroke="black" stroke-width="2.45571" stroke-linecap="round" stroke-linejoin="round"/>
<path d="M404.043 342.096C402.124 350.812 380.693 359.01 368.899 362.61C368.313 376.557 376.917 387.31 381.265 391.59C389.013 391.915 423.883 377.857 427.872 359.914C430.116 349.821 430.463 288.012 428.178 260.318C434.179 256.043 430.766 244.904 429.046 239.657C427.67 235.459 418.5 239.214 414.087 241.615C408.119 229.722 395.193 232.175 398.835 235.153C406.339 241.29 406.57 249.887 407.652 256.222C408.546 261.453 406.441 331.201 404.043 342.096Z" fill="#F5B896" stroke="black" stroke-width="2.45571" stroke-linejoin="round"/>
<path d="M325.747 461.716C325.936 457.196 316.637 451.874 309.572 450.687C290.653 447.511 256.957 465.818 249.408 466.328C248.567 466.663 246.964 463.813 251.782 456.002C241.152 450.38 223.225 442.929 217.432 442.254C211.968 449.139 188.794 503.824 203.937 512.869C226.774 523.531 290.045 464.729 294.32 470.745C293.589 488.144 297.979 491.415 300.061 492.297C304.128 494.02 307.71 490.711 307.146 488.747C307.71 490.711 312.302 493.458 315.584 492.303C318.867 491.147 320.06 489.256 318.231 486.626C323.825 492.035 330.32 486.347 327.738 484.405C321.017 479.352 320.065 467.261 317.513 462.352C320.924 467.442 325.471 468.26 325.747 461.716Z" fill="#F5B896"/>
<path d="M318.231 486.626C323.825 492.035 330.32 486.347 327.738 484.405C320.494 478.959 319.952 465.339 316.886 461.344C320.337 467.31 325.454 468.67 325.747 461.716C325.936 457.196 316.637 451.874 309.572 450.687C290.653 447.511 256.957 465.818 249.408 466.328M318.231 486.626C320.06 489.256 318.867 491.147 315.584 492.303C312.302 493.458 307.71 490.711 307.146 488.747M318.231 486.626C318.231 486.626 312.143 481.842 312.577 471.512M307.146 488.747C307.71 490.711 304.128 494.02 300.061 492.297C297.979 491.415 293.589 488.144 294.32 470.745C290.045 464.729 226.774 523.531 203.937 512.869C188.794 503.824 211.968 449.139 217.432 442.254C223.225 442.929 241.152 450.38 251.782 456.002C246.964 463.813 248.567 466.663 249.408 466.328M307.146 488.747C307.146 488.747 302.2 483.332 304.005 471.152M215.858 479.703L249.408 466.328" stroke="black" stroke-width="2.45571" stroke-linecap="round" stroke-linejoin="round"/>
<path d="M416.302 243.899C417.159 246.594 423.698 245.506 428.12 244.101C432.542 242.696 432.946 240.796 432.316 238.811C431.685 236.826 430.258 235.508 425.836 236.913C421.414 238.318 415.446 241.203 416.302 243.899Z" fill="#F5B896" stroke="black" stroke-width="2.45571" stroke-linecap="round" stroke-linejoin="round"/>
<path d="M418.613 250.463C419.47 253.159 426.009 252.07 430.431 250.665C434.853 249.26 435.257 247.36 434.627 245.375C433.996 243.39 432.569 242.072 428.147 243.477C423.725 244.882 417.757 247.768 418.613 250.463Z" fill="#F5B896" stroke="black" stroke-width="2.45571" stroke-linecap="round" stroke-linejoin="round"/>
<path d="M419.633 256.977C420.49 259.672 427.029 258.584 431.451 257.179C435.873 255.774 436.277 253.874 435.647 251.889C435.016 249.904 433.589 248.586 429.167 249.991C424.745 251.396 418.777 254.282 419.633 256.977Z" fill="#F5B896" stroke="black" stroke-width="2.45571" stroke-linecap="round" stroke-linejoin="round"/>
<path d="M389.294 457.881L406.211 393.945L538.173 343.218L507.919 462.867L372.456 519.948L267.864 499.995L296.58 489.643C296.58 489.643 299.855 492.931 301.145 493.019C302.425 493.106 308.212 492.042 307.097 488.864C307.079 488.816 307.07 488.79 307.07 488.79C307.08 488.815 307.089 488.839 307.097 488.864C307.306 489.394 308.815 492.554 314.787 491.618C320.179 490.773 318.578 487.44 317.869 486.319C317.696 486.097 317.612 485.949 317.612 485.949C317.612 485.949 317.721 486.086 317.869 486.319C318.591 487.247 320.872 489.467 325.128 487.558C328.04 486.252 327.175 484.053 325.372 481.747C323.91 479.878 322.952 477.765 322.952 477.765L369.746 457.06L389.294 457.881Z" fill="white"/>
<path d="M389.294 457.881L406.211 393.945L538.173 343.218L507.919 462.867L372.456 519.948L267.864 499.995L296.58 489.643C296.58 489.643 299.855 492.931 301.145 493.019C302.435 493.106 308.302 492.026 307.07 488.79C307.07 488.79 308.276 492.638 314.787 491.618C321.298 490.598 317.612 485.949 317.612 485.949C317.612 485.949 319.854 489.924 325.128 487.558C328.04 486.252 327.175 484.053 325.372 481.747M389.294 457.881L369.746 457.06L322.952 477.765M389.294 457.881L377.465 508.482M322.952 477.765C322.952 477.765 323.91 479.878 325.372 481.747M322.952 477.765L325.372 481.747" stroke="black" stroke-width="2.45571" stroke-linecap="round" stroke-linejoin="round"/>
<path d="M454.368 423.137C451.004 426.229 446.148 434.046 453.635 440.57" stroke="black" stroke-width="2.45571" stroke-linecap="round" stroke-linejoin="round"/>
<path d="M464.78 421.632C467.573 424.864 471.342 432.746 464.075 438.42" stroke="black" stroke-width="2.45571" stroke-linecap="round" stroke-linejoin="round"/>
<path d="M336.929 334.13L339.018 284.414C339.018 284.414 334.954 258.355 303.44 256.384C271.926 254.413 267.622 280.104 267.622 280.104C267.103 292.471 270.714 299.58 275.389 303.547C270.2 300.111 262.245 297.232 260.099 305.676C257.627 315.403 268.112 319.595 273.664 320.475C276.85 342.86 272.045 359 269.244 364.273C273.959 374.82 292.055 373.856 300.514 372.055L301.192 355.913C335.651 358.396 336.44 345.752 336.929 334.13Z" fill="#F5B896"/>
<path d="M339.018 284.414L336.929 334.13C336.44 345.752 335.651 358.396 301.192 355.913L300.514 372.055C292.055 373.856 273.959 374.82 269.244 364.273C272.045 359 276.85 342.86 273.664 320.475C268.112 319.595 257.627 315.403 260.099 305.676C262.572 295.948 272.752 301.248 277.533 305.115C271.879 301.577 267.025 294.309 267.622 280.104C267.622 280.104 271.926 254.413 303.44 256.384C334.954 258.355 339.018 284.414 339.018 284.414Z" stroke="black" stroke-width="2.45571" stroke-linejoin="round"/>
<path d="M300.548 355.885C296.047 355.49 288.694 353.834 286.852 350.026C286.776 349.839 286.702 349.657 286.631 349.479C286.692 349.666 286.766 349.848 286.852 350.026C289.691 356.995 295.927 370.207 299.897 371.381L300.548 355.885Z" fill="black"/>
<path d="M300.548 355.885C295.837 355.472 288.002 353.676 286.631 349.479C289.355 356.277 295.821 370.175 299.897 371.381L300.548 355.885Z" stroke="black" stroke-width="2.45571" stroke-linecap="round" stroke-linejoin="round"/>
<path d="M288.357 277.742C290.409 275.473 292.651 277.531 294.128 279.808C294.929 281.042 296.204 281.958 297.674 281.993C323.021 282.598 334.361 275.712 337.968 294.057C341.687 312.972 347.204 273.748 334.656 265.459C331.253 263.211 325.353 256.658 301.537 255.657C277.798 254.66 269.425 267.89 267.033 278.786C264.641 289.682 269.329 300.875 269.329 300.875L277.561 304.454C297.861 312.422 284.975 281.481 288.357 277.742Z" fill="black" stroke="black" stroke-width="2.45571" stroke-linecap="round" stroke-linejoin="round"/>
<path d="M310.375 317.515C311.554 314.148 315.232 312.376 318.589 313.559C321.946 314.741 323.711 318.429 322.531 321.797C321.833 323.792 320.257 325.226 318.391 325.819" stroke="black" stroke-width="1.93872" stroke-linecap="round" stroke-linejoin="round"/>
<ellipse cx="1.9328" cy="1.93872" rx="1.9328" ry="1.93872" transform="matrix(-0.999118 -0.0419904 -0.0419904 0.999118 307.953 311.564)" fill="black"/>
<ellipse cx="1.9328" cy="1.93872" rx="1.9328" ry="1.93872" transform="matrix(-0.999118 -0.0419904 -0.0419904 0.999118 328.606 311.125)" fill="black"/>
<path d="M307.073 301.826C303.908 300.399 298.028 302.222 297.79 307.904" stroke="black" stroke-width="1.93872" stroke-linecap="round" stroke-linejoin="round"/>
<path d="M325.761 302.103C327.72 301.539 331.779 303.132 332.679 306.275" stroke="black" stroke-width="1.93872" stroke-linecap="round" stroke-linejoin="round"/>
<path d="M308.291 334.205C309.301 335.757 311.32 338.86 315.826 339.049C319.43 339.201 321.746 336.28 322.453 334.8" stroke="black" stroke-width="1.93872" stroke-linecap="round" stroke-linejoin="round"/>
<path d="M271.557 363.06L271.693 359.832L294.801 364.037L302.278 370.82L293.076 374.314L291.567 379.425L294.98 390.564L294.655 398.312L284.465 379.126L271.557 363.06Z" fill="#F5B896"/>
<path d="M294.34 375.015C291.779 374.39 290.976 378.108 290.895 380.045L289.956 371.596C293.055 371.727 300.772 370.757 303.597 370.229C303.454 368.498 303.426 365.047 304.459 365.091C305.492 365.134 306.97 366.921 307.579 367.809L306.901 383.951C303.672 383.815 297.541 375.796 294.34 375.015Z" fill="white" stroke="black" stroke-width="1.93872" stroke-linecap="round" stroke-linejoin="round"/>
<path d="M283.635 378.739C283.748 379.114 283.804 379.457 283.792 379.744L283.635 378.739C282.983 376.576 280.445 373.341 278.225 373.688C274.97 374.198 267.086 377.101 263.858 376.965L267.092 361.578C267.774 360.744 269.396 359.088 270.429 359.131C271.462 359.174 271.199 361.319 270.912 363.032C273.977 367.042 279.163 369.847 282.262 369.977L283.635 378.739Z" fill="white"/>
<path d="M283.792 379.744C283.874 377.807 280.83 373.28 278.225 373.688C274.97 374.198 267.086 377.101 263.858 376.965L267.092 361.578C267.774 360.744 269.396 359.088 270.429 359.131C271.462 359.174 271.199 361.319 270.912 363.032C273.977 367.042 279.163 369.847 282.262 369.977L283.792 379.744ZM283.792 379.744C286.158 385.018 292.711 386.069 295.029 404.795" stroke="black" stroke-width="1.93872" stroke-linecap="round" stroke-linejoin="round"/>
<path d="M290.867 380.69C291.969 385.264 296.998 388.71 295.029 404.797" stroke="black" stroke-width="1.93872" stroke-linecap="round" stroke-linejoin="round"/>
<path d="M718.62 172.938L772.58 171.537C789.218 171.106 803.04 184.26 803.473 200.95C803.906 217.639 790.785 231.493 774.147 231.925L720.187 233.325C703.548 233.757 689.726 220.602 689.293 203.913C688.86 187.223 701.981 173.369 718.62 172.938Z" fill="black" stroke="black" stroke-width="1.9"/>
<path d="M717.62 171.94L771.58 170.539C788.218 170.108 802.04 183.262 802.473 199.952C802.906 216.641 789.785 230.495 773.147 230.927L719.187 232.327C702.548 232.759 688.726 219.604 688.293 202.914C687.86 186.225 700.981 172.371 717.62 171.94Z" fill="#E74F4F" stroke="black" stroke-width="1.9"/>
<path d="M720.545 182.154L765.545 180.987C777.909 180.666 788.169 189.621 788.465 200.99C788.76 212.359 778.977 221.834 766.614 222.155L721.613 223.323C709.249 223.644 698.989 214.689 698.694 203.32C698.399 191.951 708.181 182.475 720.545 182.154Z" fill="#465173"/>
<path d="M743.626 202.283C743.293 189.474 753.399 178.829 766.209 178.497C779.018 178.165 789.663 188.271 789.995 201.08C790.327 213.889 780.221 224.534 767.412 224.866C754.603 225.198 743.958 215.092 743.626 202.283Z" fill="white" stroke="black" stroke-width="1.9"/>
<path d="M844.532 186.698L819.547 185.599M816.66 171.797C822.814 168.154 835.496 160.054 836.988 156.789M808.042 162.063L814.252 143.18" stroke="#465173" stroke-width="3.6" stroke-linecap="round"/>
</svg>
