<svg width="858" height="693" viewBox="0 0 858 693" fill="none" xmlns="http://www.w3.org/2000/svg">
<path d="M359.585 231.134L262.158 138.37L400.869 169.165L425.403 50.373L470.507 155.14L503.982 106.644" stroke="black" stroke-width="3.50216" stroke-linecap="round" stroke-linejoin="round"/>
<path d="M268.819 247.161L342.35 268.037" stroke="black" stroke-width="3.50216" stroke-linecap="round" stroke-linejoin="round"/>
<path d="M400.453 399.443C404.304 370.806 419.148 264.896 425.844 218.087C551.737 277.28 716.356 261.864 784.091 248.161C780.482 299.858 771.115 363.588 766.769 389.002C761.337 420.769 738.982 504.742 710.026 536.41C681.07 568.078 563.985 601.52 477.356 550.094C398.037 503.008 395.64 435.239 400.453 399.443Z" fill="#FFDDCA" stroke="black" stroke-width="3.50216" stroke-linejoin="round"/>
<path d="M665.468 344.713C652.779 353.662 660.793 371.761 666.387 379.692C672.732 379.108 687.007 372.93 693.686 362.077C699.029 353.395 695.411 338.201 692.934 331.689C689.066 332.302 678.158 335.763 665.468 344.713Z" fill="#63B1AA" stroke="#0A524B" stroke-width="2.54863" stroke-linejoin="round"/>
<path d="M672.136 372.718C676.867 373.136 684.781 371.56 684.781 371.56" stroke="#0A524B" stroke-width="2.54863" stroke-linejoin="round" stroke-dasharray="0.03 0.03"/>
<path d="M667.045 378.562C674.725 369.323 692.858 341.479 692.257 332.73" stroke="#0A524B" stroke-width="1.27432" stroke-linejoin="round"/>
<path d="M481.032 453.547C495.93 449.17 494.182 429.453 491.446 420.142C485.252 418.648 469.746 419.891 459.924 428.009C452.066 434.504 450.589 450.052 450.833 457.015C454.692 457.683 466.134 457.925 481.032 453.547Z" fill="#63B1AA" stroke="#0A524B" stroke-width="2.54863" stroke-linejoin="round"/>
<path d="M483.755 424.888C479.411 422.967 471.412 421.905 471.412 421.905" stroke="#0A524B" stroke-width="2.54863" stroke-linejoin="round" stroke-dasharray="0.03 0.03"/>
<path d="M490.459 420.999C480.209 427.267 454.064 447.774 451.811 456.249" stroke="#0A524B" stroke-width="1.27432" stroke-linejoin="round"/>
<path d="M672.814 463.712C651.571 460.646 652.233 440.655 655.22 431.043C697.655 424.987 713.024 448.841 715.405 461.525C710.059 463.532 694.056 466.778 672.814 463.712Z" fill="#63B1AA" stroke="#0A524B" stroke-width="2.54863" stroke-linejoin="round"/>
<path d="M664.552 438.98C660.987 443.945 662.418 452.165 662.418 452.165" stroke="#0A524B" stroke-width="2.54863" stroke-linejoin="round" stroke-dasharray="0.03 0.03"/>
<path d="M656.745 431.473C666.753 438.695 704.329 461.893 715.046 460.101" stroke="#0A524B" stroke-width="1.27432" stroke-linejoin="round"/>
<path d="M512.463 338.538C531.581 348.293 524.505 367.002 518.578 375.137C476.458 367.18 469.605 339.644 471.443 326.87C477.15 326.695 493.344 328.784 512.463 338.538Z" fill="#63B1AA" stroke="#0A524B" stroke-width="2.54863" stroke-linejoin="round"/>
<path d="M512.305 364.614C517.281 361.064 518.578 352.823 518.578 352.823" stroke="#0A524B" stroke-width="2.54863" stroke-linejoin="round" stroke-dasharray="0.03 0.03"/>
<path d="M517.273 374.237C510.13 364.173 482.046 330.094 471.324 328.333" stroke="#0A524B" stroke-width="1.27432" stroke-linejoin="round"/>
<path d="M656.456 421.367C673.095 445.529 711.309 440.317 716.348 421.187C713.773 412.274 703.165 404.66 685.715 404.713C669.149 404.763 658.985 414.988 656.456 421.367Z" fill="#63B1AA" stroke="#0A524B" stroke-width="2.54863" stroke-linejoin="round"/>
<path d="M657.731 421.363C669.63 423.026 709.225 425.031 716.346 419.912" stroke="#0A524B" stroke-width="1.27432" stroke-linejoin="round"/>
<path d="M514.289 383.898C506.333 355.66 468.48 348.267 457.539 364.749C457.102 374.016 464.687 384.644 481.221 390.224C496.918 395.52 509.837 389.12 514.289 383.898Z" fill="#63B1AA" stroke="#0A524B" stroke-width="2.54863" stroke-linejoin="round"/>
<path d="M513.082 383.49C502.356 378.078 465.524 363.408 457.133 365.956" stroke="#0A524B" stroke-width="1.27432" stroke-linejoin="round"/>
<path d="M685.173 368.957C670.323 362.675 660.822 383.549 657.928 394.771C662.26 400.681 675.874 410.517 688.573 409.451C698.731 408.598 708.604 394.176 712.27 387.072C709.425 383.651 700.023 375.239 685.173 368.957Z" fill="#63B1AA" stroke="#0A524B" stroke-width="2.54863" stroke-linejoin="round"/>
<path d="M658.84 390.012C670.834 390.711 704.006 388.778 710.69 383.102" stroke="#0A524B" stroke-width="1.27432" stroke-linejoin="round"/>
<path d="M470.2 424.244C482.23 434.98 497.956 418.287 504.316 408.598C502.121 401.606 492.408 387.905 480.044 384.818C470.153 382.348 456.157 392.815 450.395 398.357C451.984 402.512 458.17 413.507 470.2 424.244Z" fill="#63B1AA" stroke="#0A524B" stroke-width="2.54863" stroke-linejoin="round"/>
<path d="M501.917 412.807C490.79 408.277 458.768 399.406 450.609 402.623" stroke="#0A524B" stroke-width="1.27432" stroke-linejoin="round"/>
<path d="M630.509 450.89C628.358 480.148 661.421 500.005 677.327 488.243C680.898 479.68 677.392 467.102 663.751 456.219C650.802 445.888 636.475 447.499 630.509 450.89Z" fill="#63B1AA" stroke="#0A524B" stroke-width="2.54863" stroke-linejoin="round"/>
<path d="M633.479 459.459C632.886 462.246 632.52 466.844 632.52 466.844" stroke="#0A524B" stroke-width="2.54863" stroke-linejoin="round" stroke-dasharray="0.03 0.03"/>
<path d="M631.504 451.685C639.742 460.43 669.364 486.78 678.121 487.246" stroke="#0A524B" stroke-width="1.27432" stroke-linejoin="round"/>
<path d="M548.374 364.322C559.847 337.322 534.956 307.861 516.107 313.865C509.965 320.817 509.226 333.854 518.627 348.555C527.552 362.512 541.633 365.608 548.374 364.322Z" fill="#63B1AA" stroke="#0A524B" stroke-width="2.54863" stroke-linejoin="round"/>
<path d="M548.325 355.253C549.786 352.806 551.616 348.572 551.616 348.572" stroke="#0A524B" stroke-width="2.54863" stroke-linejoin="round" stroke-dasharray="0.03 0.03"/>
<path d="M547.686 363.25C542.71 352.314 523.171 317.818 515.032 314.552" stroke="#0A524B" stroke-width="1.27432" stroke-linejoin="round"/>
<path d="M614.51 419.961C593.528 440.465 605.161 477.236 624.869 478.951C633.214 474.898 638.914 463.15 635.896 445.963C633.03 429.646 621.226 421.369 614.51 419.961Z" fill="#63B1AA" stroke="#0A524B" stroke-width="2.54863" stroke-linejoin="round"/>
<path d="M616.121 436.497C612.356 437.158 607.183 444.536 607.183 444.536" stroke="#0A524B" stroke-width="2.54863" stroke-linejoin="round" stroke-dasharray="0.03 0.03"/>
<path d="M614.793 428.934C612.503 430.63 609.185 433.834 609.185 433.834" stroke="#0A524B" stroke-width="2.54863" stroke-linejoin="round" stroke-dasharray="0.03 0.03"/>
<path d="M614.731 421.215C615.115 433.223 619.87 472.583 626.125 478.729" stroke="#0A524B" stroke-width="1.27432" stroke-linejoin="round"/>
<path d="M553.541 398.759C580.015 386.119 580.865 347.561 562.763 339.581C553.557 340.725 544.372 350.006 541.685 367.249C539.134 383.617 547.637 395.26 553.541 398.759Z" fill="#63B1AA" stroke="#0A524B" stroke-width="2.54863" stroke-linejoin="round"/>
<path d="M557.35 382.587C561.128 383.176 568.404 377.861 568.404 377.861" stroke="#0A524B" stroke-width="2.54863" stroke-linejoin="round" stroke-dasharray="0.03 0.03"/>
<path d="M556.167 390.173C558.882 389.306 563.057 387.344 563.057 387.344" stroke="#0A524B" stroke-width="2.54863" stroke-linejoin="round" stroke-dasharray="0.03 0.03"/>
<path d="M553.736 397.499C557.246 386.009 565.441 347.22 561.503 339.384" stroke="#0A524B" stroke-width="1.27432" stroke-linejoin="round"/>
<path d="M660.712 425.449C654.431 411.248 635.11 415.548 626.234 419.474C625.56 425.81 628.811 441.021 638.14 449.703C645.602 456.648 661.211 456.087 668.082 454.939C668.242 451.026 666.992 439.65 660.712 425.449Z" fill="#63B1AA" stroke="#0A524B" stroke-width="2.54863" stroke-linejoin="round"/>
<path d="M627.214 420.339C634.763 429.685 658.5 452.937 667.196 454.068" stroke="#0A524B" stroke-width="1.27432" stroke-linejoin="round"/>
<path d="M511.577 378.661C512.941 394.129 532.617 396.291 542.284 395.438C544.966 389.658 546.795 374.211 540.766 362.985C535.943 354.003 520.987 349.499 514.113 348.37C512.699 352.022 510.213 363.193 511.577 378.661Z" fill="#63B1AA" stroke="#0A524B" stroke-width="2.54863" stroke-linejoin="round"/>
<path d="M541.637 394.303C537.506 383.021 522.538 353.355 514.671 349.48" stroke="#0A524B" stroke-width="1.27432" stroke-linejoin="round"/>
<path d="M649.834 421.23C631.765 426.415 620.61 411.594 617.29 403.535C646.278 384.288 671.974 396.326 681.198 404.752C678.272 408.084 667.902 416.045 649.834 421.23Z" fill="#63B1AA" stroke="#0A524B" stroke-width="2.54863" stroke-linejoin="round"/>
<path d="M618.712 403.316C630.594 405.089 672.926 408.89 680.094 403.837" stroke="#0A524B" stroke-width="1.27432" stroke-linejoin="round"/>
<path d="M520.513 386.164C539.289 387.085 545.067 404.712 545.609 413.411C511.962 422.279 491.524 402.595 485.51 391.645C489.355 389.434 501.738 385.244 520.513 386.164Z" fill="#63B1AA" stroke="#0A524B" stroke-width="2.54863" stroke-linejoin="round"/>
<path d="M544.195 413.159C533.519 407.648 494.677 390.395 486.262 392.866" stroke="#0A524B" stroke-width="1.27432" stroke-linejoin="round"/>
<path d="M636.472 380.488C665.299 375.041 675.985 337.983 660.527 325.638C651.335 324.389 640.081 331.012 633.073 346.993C626.419 362.164 631.661 375.595 636.472 380.488Z" fill="#63B1AA" stroke="#0A524B" stroke-width="2.54863" stroke-linejoin="round"/>
<path d="M644.292 365.828C647.793 367.363 656.188 364.087 656.188 364.087" stroke="#0A524B" stroke-width="2.54863" stroke-linejoin="round" stroke-dasharray="0.03 0.03"/>
<path d="M641.209 372.86C644.055 372.716 648.593 371.888 648.593 371.888" stroke="#0A524B" stroke-width="2.54863" stroke-linejoin="round" stroke-dasharray="0.03 0.03"/>
<path d="M636.983 379.321C643.316 369.111 661.161 333.709 659.359 325.126" stroke="#0A524B" stroke-width="1.27432" stroke-linejoin="round"/>
<path d="M520.018 429.037C490.976 424.894 468.907 456.524 479.556 473.196C487.855 477.343 500.643 474.704 512.432 461.838C523.624 449.624 522.994 435.221 520.018 429.037Z" fill="#63B1AA" stroke="#0A524B" stroke-width="2.54863" stroke-linejoin="round"/>
<path d="M507.885 440.392C505.067 437.809 496.064 438.202 496.064 438.202" stroke="#0A524B" stroke-width="2.54863" stroke-linejoin="round" stroke-dasharray="0.03 0.03"/>
<path d="M513.074 434.73C510.334 433.947 505.771 433.268 505.771 433.268" stroke="#0A524B" stroke-width="2.54863" stroke-linejoin="round" stroke-dasharray="0.03 0.03"/>
<path d="M519.157 429.977C509.869 437.598 481.558 465.352 480.495 474.057" stroke="#0A524B" stroke-width="1.27432" stroke-linejoin="round"/>
<path d="M594.237 384.681C618.935 368.849 614.987 330.483 596.034 324.815C587.041 327.094 579.081 337.445 578.558 354.887C578.061 371.446 587.945 381.942 594.237 384.681Z" fill="#63B1AA" stroke="#0A524B" stroke-width="2.54863" stroke-linejoin="round"/>
<path d="M596.006 368.161C599.827 368.276 606.387 362.098 606.387 362.098" stroke="#0A524B" stroke-width="2.54863" stroke-linejoin="round" stroke-dasharray="0.03 0.03"/>
<path d="M597.588 358.009C601.447 356.85 604.033 355.652 607.969 351.946" stroke="#0A524B" stroke-width="2.54863" stroke-linejoin="round" stroke-dasharray="0.03 0.03"/>
<path d="M595.776 375.834C598.362 374.637 602.261 372.172 602.261 372.172" stroke="#0A524B" stroke-width="2.54863" stroke-linejoin="round" stroke-dasharray="0.03 0.03"/>
<path d="M594.273 383.407C596.329 371.57 599.64 332.062 594.759 324.776" stroke="#0A524B" stroke-width="1.27432" stroke-linejoin="round"/>
<path d="M561.35 438.693C532.866 445.712 524.227 483.3 540.338 494.779C549.586 495.522 560.459 488.293 566.581 471.952C572.393 456.438 566.423 443.315 561.35 438.693Z" fill="#63B1AA" stroke="#0A524B" stroke-width="2.54863" stroke-linejoin="round"/>
<path d="M554.346 453.759C550.766 452.418 542.564 456.149 542.564 456.149" stroke="#0A524B" stroke-width="2.54863" stroke-linejoin="round" stroke-dasharray="0.03 0.03"/>
<path d="M549.577 462.858C545.55 462.71 542.716 463.01 537.795 465.248" stroke="#0A524B" stroke-width="2.54863" stroke-linejoin="round" stroke-dasharray="0.03 0.03"/>
<path d="M557.04 446.569C554.206 446.868 549.721 447.944 549.721 447.944" stroke="#0A524B" stroke-width="2.54863" stroke-linejoin="round" stroke-dasharray="0.03 0.03"/>
<path d="M560.904 439.885C555.14 450.427 539.263 486.754 541.532 495.225" stroke="#0A524B" stroke-width="1.27432" stroke-linejoin="round"/>
<path d="M616.531 392.146C640.377 409.236 674.56 391.375 672.815 371.67C667.37 364.159 654.809 360.592 638.411 366.558C622.843 372.222 616.748 385.287 616.531 392.146Z" fill="#63B1AA" stroke="#0A524B" stroke-width="2.54863" stroke-linejoin="round"/>
<path d="M617.729 391.711C629.487 389.241 667.416 377.703 672.38 370.473" stroke="#0A524B" stroke-width="1.27432" stroke-linejoin="round"/>
<path d="M542.655 424.434C525.596 400.566 487.479 406.446 482.774 425.661C485.505 434.527 496.244 441.954 513.691 441.597C530.253 441.257 540.237 430.856 542.655 424.434Z" fill="#63B1AA" stroke="#0A524B" stroke-width="2.54863" stroke-linejoin="round"/>
<path d="M541.381 424.461C529.455 423.006 489.831 421.693 482.801 426.935" stroke="#0A524B" stroke-width="1.27432" stroke-linejoin="round"/>
<path d="M600.373 353.528C586.003 360.487 594.309 381.007 600.258 390.398C607.318 390.999 623.358 387.252 631.121 377.146C637.331 369.061 633.809 352.43 631.272 345.125C626.96 345.027 614.744 346.57 600.373 353.528Z" fill="#63B1AA" stroke="#0A524B" stroke-width="2.54863" stroke-linejoin="round"/>
<path d="M598.267 387.221C606.859 378.824 627.768 352.999 628.072 344.234" stroke="#0A524B" stroke-width="1.27432" stroke-linejoin="round"/>
<path d="M545.489 466.199C561.336 464.248 560.093 442.145 557.491 431.337C551.003 428.491 534.611 426.864 524.003 433.925C515.517 439.575 513.486 456.453 513.531 464.186C517.581 465.67 529.642 468.15 545.489 466.199Z" fill="#63B1AA" stroke="#0A524B" stroke-width="2.54863" stroke-linejoin="round"/>
<path d="M558.35 434.988C547.508 440.164 519.387 457.865 516.271 466.063" stroke="#0A524B" stroke-width="1.27432" stroke-linejoin="round"/>
<path d="M575.346 415.99C564.323 406.273 573.433 399.068 579.366 396.68C603.512 397.071 609.062 422.071 603.537 434.733C585.376 436.426 573.654 423.084 575.346 415.99Z" fill="#FFDDCA" stroke="#0A524B" stroke-width="2.54863" stroke-linejoin="round"/>
<path d="M589.329 415.149C596.628 427.903 585.681 431.785 579.296 432.131C556.566 423.973 559.377 398.518 568.691 388.316C586.427 392.571 593.219 408.981 589.329 415.149Z" fill="#FFDDCA" stroke="#0A524B" stroke-width="2.54863" stroke-linejoin="round"/>
<path d="M575.488 401.471C581.333 409.188 589.335 409.957 592.606 409.377C613.537 405.666 606.416 390.062 600.239 382.723C587.913 372.327 584.025 381.723 583.621 387.721C578.475 389.089 569.643 393.755 575.488 401.471Z" fill="#FFDDCA"/>
<path d="M613.462 446.707C603.209 446.883 602.316 439.338 603.151 435.543C593.636 418.084 622.009 421.259 624.483 426.974C626.957 432.689 626.278 446.486 613.462 446.707Z" fill="#FFDDCA"/>
<path d="M575.488 401.471C581.333 409.188 589.335 409.957 592.606 409.377C613.537 405.666 606.416 390.062 600.239 382.723C587.913 372.327 584.025 381.723 583.621 387.721C578.475 389.089 569.643 393.755 575.488 401.471Z" stroke="#0A524B" stroke-width="2.54863" stroke-linejoin="round"/>
<path d="M613.462 446.707C603.209 446.883 602.316 439.338 603.151 435.543C593.636 418.084 622.009 421.259 624.483 426.974C626.957 432.689 626.278 446.486 613.462 446.707Z" stroke="#0A524B" stroke-width="2.54863" stroke-linejoin="round"/>
<path d="M584.511 428.847C581.467 419.658 574.141 416.349 570.858 415.843C549.849 412.604 551.556 429.671 555.035 438.609C563.349 452.426 570.06 444.786 572.377 439.239C577.69 439.604 587.554 438.037 584.511 428.847Z" fill="#FFDDCA"/>
<path d="M563.158 373.781C572.921 376.921 571.332 384.352 569.317 387.674C572.692 407.269 546.86 395.112 546.361 388.904C545.863 382.696 550.955 369.856 563.158 373.781Z" fill="#FFDDCA"/>
<path d="M584.511 428.847C581.467 419.658 574.141 416.349 570.858 415.843C549.849 412.604 551.556 429.671 555.035 438.609C563.349 452.426 570.06 444.786 572.377 439.239C577.69 439.604 587.554 438.037 584.511 428.847Z" stroke="#0A524B" stroke-width="2.54863" stroke-linejoin="round"/>
<path d="M563.158 373.781C572.921 376.921 571.332 384.352 569.317 387.674C572.692 407.269 546.86 395.112 546.361 388.904C545.863 382.696 550.955 369.856 563.158 373.781Z" stroke="#0A524B" stroke-width="2.54863" stroke-linejoin="round"/>
<path d="M591.96 407.802C592.138 391.94 604.011 395.282 609.925 398.936C628.175 424.888 606.063 427.577 592.725 425.678C576.578 418.832 585.487 410.909 591.96 407.802Z" fill="#0A524B" stroke="#0A524B" stroke-width="2.54863" stroke-linejoin="round"/>
<path d="M570.963 417.541C565.677 432.498 555.517 425.505 551.098 420.139C542.194 389.687 563.992 394.274 576.004 400.374C589.08 412.063 578.092 416.689 570.963 417.541Z" fill="#0A524B" stroke="#0A524B" stroke-width="2.54863" stroke-linejoin="round"/>
<path d="M623.514 399.466C626.371 385.442 615.817 384.337 610.184 385.538C592.691 398.847 610.037 417.331 620.897 424.91C635.123 416.555 628.569 404.466 623.514 399.466Z" fill="#FFDDCA" stroke="#0A524B" stroke-width="2.54863" stroke-linejoin="round"/>
<path d="M538.406 415.254C531.179 427.606 540.812 432.056 546.531 432.737C567.383 425.781 556.925 402.69 549.09 392.014C532.931 395.333 535.234 408.89 538.406 415.254Z" fill="#FFDDCA" stroke="#0A524B" stroke-width="2.54863" stroke-linejoin="round"/>
<ellipse cx="605.265" cy="231.815" rx="179.636" ry="36.5265" transform="rotate(5.3091 605.265 231.815)" fill="#F5B896" stroke="black" stroke-width="3.50216" stroke-linejoin="round"/>
<path d="M798.331 397.545C768.184 420.671 757.996 440.439 750.156 454.801C767.439 395.582 766.713 380.513 772.138 359.771C825.12 360.922 834.975 284.484 816.579 273.671C801.862 265.021 786.371 278.138 780.465 285.778L783.393 254.978C787.731 250.211 828.306 233.268 844.57 280.136C860.834 327.004 830.39 372.953 798.331 397.545Z" fill="#FFDDCA" stroke="black" stroke-width="3.50216" stroke-linejoin="round"/>
<path d="M764.603 261.934C764.603 261.934 718.988 278.626 597.276 267.058C483.128 253.31 448.658 234.495 448.658 234.495C551.94 196.343 627.998 261.935 764.603 261.934Z" fill="#764738"/>
<path d="M764.603 261.934C764.603 261.934 548.073 228.571 448.658 234.495C551.94 196.342 627.998 261.935 764.603 261.934Z" fill="#633D32"/>
<path d="M67.1717 340.683C85.2801 340.683 107.134 352.327 107.134 352.327V380.688C107.134 380.688 23.4024 320.099 29.848 427.096C33.2649 483.817 111.001 514.757 111.001 514.757C111.001 514.757 135.924 601.557 139.362 611.44C82.6407 535.382 46.5457 544.406 18.1847 487.684C-10.1764 430.963 -5.06536 340.683 67.1717 340.683Z" fill="#FFDDCA" stroke="black" stroke-width="3.50216" stroke-linejoin="round"/>
<path d="M111.002 516.003C109.971 487.127 107.135 385.373 105.846 338.105C239.914 375.232 402.343 334.667 466.799 309.744C471.956 361.309 482.269 470.884 482.269 496.667C482.269 528.895 479.69 581.749 456.486 617.844C416.95 679.344 292.768 714.528 210.264 673.276C127.761 632.024 112.291 552.099 111.002 516.003Z" fill="#FFDDCA" stroke="black" stroke-width="3.50216" stroke-linejoin="round"/>
<path d="M403.73 449.435C391.04 458.384 399.055 476.483 404.648 484.414C410.993 483.83 425.268 477.652 431.947 466.799C437.29 458.117 433.672 442.923 431.196 436.411C427.328 437.023 416.419 440.485 403.73 449.435Z" fill="#63B1AA" stroke="#0A524B" stroke-width="2.54863" stroke-linejoin="round"/>
<path d="M410.397 477.44C415.128 477.858 423.042 476.282 423.042 476.282" stroke="#0A524B" stroke-width="2.54863" stroke-linejoin="round" stroke-dasharray="0.03 0.03"/>
<path d="M405.306 483.284C412.986 474.045 431.119 446.201 430.518 437.452" stroke="#0A524B" stroke-width="1.27432" stroke-linejoin="round"/>
<path d="M219.294 558.27C234.192 553.892 232.444 534.175 229.708 524.864C223.514 523.37 208.009 524.613 198.186 532.731C190.328 539.226 188.851 554.775 189.095 561.737C192.954 562.406 204.396 562.647 219.294 558.27Z" fill="#63B1AA" stroke="#0A524B" stroke-width="2.54863" stroke-linejoin="round"/>
<path d="M222.016 529.61C217.673 527.689 209.674 526.627 209.674 526.627" stroke="#0A524B" stroke-width="2.54863" stroke-linejoin="round" stroke-dasharray="0.03 0.03"/>
<path d="M228.721 525.721C218.471 531.988 192.326 552.495 190.073 560.971" stroke="#0A524B" stroke-width="1.27432" stroke-linejoin="round"/>
<path d="M411.076 568.434C389.833 565.368 390.496 545.377 393.482 535.765C435.917 529.709 451.286 553.564 453.667 566.248C448.321 568.254 432.319 571.5 411.076 568.434Z" fill="#63B1AA" stroke="#0A524B" stroke-width="2.54863" stroke-linejoin="round"/>
<path d="M402.814 543.702C399.249 548.667 400.68 556.887 400.68 556.887" stroke="#0A524B" stroke-width="2.54863" stroke-linejoin="round" stroke-dasharray="0.03 0.03"/>
<path d="M395.008 536.195C405.016 543.416 442.592 566.615 453.309 564.823" stroke="#0A524B" stroke-width="1.27432" stroke-linejoin="round"/>
<path d="M250.726 443.26C269.844 453.015 262.769 471.724 256.841 479.859C214.721 471.902 207.868 444.366 209.706 431.592C215.414 431.417 231.608 433.506 250.726 443.26Z" fill="#63B1AA" stroke="#0A524B" stroke-width="2.54863" stroke-linejoin="round"/>
<path d="M250.568 469.336C255.544 465.787 256.841 457.545 256.841 457.545" stroke="#0A524B" stroke-width="2.54863" stroke-linejoin="round" stroke-dasharray="0.03 0.03"/>
<path d="M255.535 478.959C248.392 468.895 220.307 434.816 209.585 433.055" stroke="#0A524B" stroke-width="1.27432" stroke-linejoin="round"/>
<path d="M394.718 526.089C411.356 550.251 449.57 545.038 454.61 525.909C452.035 516.996 441.427 509.382 423.977 509.435C407.411 509.485 397.247 519.71 394.718 526.089Z" fill="#63B1AA" stroke="#0A524B" stroke-width="2.54863" stroke-linejoin="round"/>
<path d="M395.993 526.085C407.892 527.748 447.487 529.753 454.607 524.634" stroke="#0A524B" stroke-width="1.27432" stroke-linejoin="round"/>
<path d="M252.55 488.62C244.594 460.383 206.742 452.99 195.801 469.472C195.364 478.738 202.948 489.367 219.483 494.946C235.179 500.243 248.098 493.843 252.55 488.62Z" fill="#63B1AA" stroke="#0A524B" stroke-width="2.54863" stroke-linejoin="round"/>
<path d="M251.343 488.213C240.617 482.801 203.785 468.131 195.394 470.679" stroke="#0A524B" stroke-width="1.27432" stroke-linejoin="round"/>
<path d="M423.434 473.68C408.584 467.398 399.083 488.272 396.189 499.494C400.521 505.404 414.135 515.24 426.833 514.174C436.992 513.321 446.864 498.899 450.53 491.794C447.686 488.374 438.284 479.962 423.434 473.68Z" fill="#63B1AA" stroke="#0A524B" stroke-width="2.54863" stroke-linejoin="round"/>
<path d="M397.101 494.735C409.095 495.433 442.266 493.501 448.951 487.825" stroke="#0A524B" stroke-width="1.27432" stroke-linejoin="round"/>
<path d="M208.462 528.966C220.492 539.702 236.218 523.009 242.577 513.32C240.383 506.329 230.669 492.627 218.306 489.54C208.415 487.07 194.419 497.537 188.657 503.079C190.246 507.235 196.432 518.23 208.462 528.966Z" fill="#63B1AA" stroke="#0A524B" stroke-width="2.54863" stroke-linejoin="round"/>
<path d="M240.179 517.53C229.051 513 197.029 504.129 188.871 507.345" stroke="#0A524B" stroke-width="1.27432" stroke-linejoin="round"/>
<path d="M368.77 555.612C366.62 584.87 399.683 604.727 415.589 592.964C419.159 584.402 415.654 571.824 402.013 560.941C389.063 550.61 374.736 552.221 368.77 555.612Z" fill="#63B1AA" stroke="#0A524B" stroke-width="2.54863" stroke-linejoin="round"/>
<path d="M371.741 564.181C371.148 566.968 370.781 571.566 370.781 571.566" stroke="#0A524B" stroke-width="2.54863" stroke-linejoin="round" stroke-dasharray="0.03 0.03"/>
<path d="M369.766 556.407C378.004 565.153 407.626 591.503 416.383 591.969" stroke="#0A524B" stroke-width="1.27432" stroke-linejoin="round"/>
<path d="M286.634 469.045C298.107 442.044 273.217 412.583 254.367 418.587C248.225 425.54 247.487 438.576 256.888 453.278C265.813 467.234 279.893 470.33 286.634 469.045Z" fill="#63B1AA" stroke="#0A524B" stroke-width="2.54863" stroke-linejoin="round"/>
<path d="M286.587 459.975C288.047 457.529 289.877 453.294 289.877 453.294" stroke="#0A524B" stroke-width="2.54863" stroke-linejoin="round" stroke-dasharray="0.03 0.03"/>
<path d="M285.948 467.972C280.972 457.037 261.433 422.54 253.294 419.274" stroke="#0A524B" stroke-width="1.27432" stroke-linejoin="round"/>
<path d="M352.771 524.682C331.79 545.187 343.423 581.958 363.131 583.673C371.476 579.619 377.176 567.872 374.157 550.685C371.292 534.368 359.488 526.091 352.771 524.682Z" fill="#63B1AA" stroke="#0A524B" stroke-width="2.54863" stroke-linejoin="round"/>
<path d="M354.382 541.219C350.617 541.88 345.443 549.258 345.443 549.258" stroke="#0A524B" stroke-width="2.54863" stroke-linejoin="round" stroke-dasharray="0.03 0.03"/>
<path d="M353.054 533.657C350.765 535.353 347.446 538.556 347.446 538.556" stroke="#0A524B" stroke-width="2.54863" stroke-linejoin="round" stroke-dasharray="0.03 0.03"/>
<path d="M352.992 525.937C353.375 537.945 358.131 577.305 364.386 583.452" stroke="#0A524B" stroke-width="1.27432" stroke-linejoin="round"/>
<path d="M291.801 503.481C318.275 490.841 319.125 452.283 301.023 444.303C291.817 445.448 282.633 454.729 279.946 471.971C277.395 488.339 285.898 499.982 291.801 503.481Z" fill="#63B1AA" stroke="#0A524B" stroke-width="2.54863" stroke-linejoin="round"/>
<path d="M295.61 487.309C299.387 487.898 306.664 482.583 306.664 482.583" stroke="#0A524B" stroke-width="2.54863" stroke-linejoin="round" stroke-dasharray="0.03 0.03"/>
<path d="M294.428 494.896C297.143 494.029 301.317 492.067 301.317 492.067" stroke="#0A524B" stroke-width="2.54863" stroke-linejoin="round" stroke-dasharray="0.03 0.03"/>
<path d="M291.996 502.222C295.506 490.732 303.701 451.943 299.763 444.107" stroke="#0A524B" stroke-width="1.27432" stroke-linejoin="round"/>
<path d="M398.972 530.171C392.691 515.971 373.37 520.271 364.494 524.196C363.82 530.532 367.072 545.744 376.4 554.425C383.863 561.37 399.471 560.81 406.343 559.661C406.503 555.749 405.253 544.372 398.972 530.171Z" fill="#63B1AA" stroke="#0A524B" stroke-width="2.54863" stroke-linejoin="round"/>
<path d="M365.473 525.062C373.022 534.408 396.76 557.66 405.456 558.79" stroke="#0A524B" stroke-width="1.27432" stroke-linejoin="round"/>
<path d="M249.839 483.383C251.203 498.85 270.879 501.012 280.546 500.16C283.228 494.38 285.057 478.933 279.028 467.706C274.204 458.725 259.249 454.221 252.375 453.091C250.961 456.744 248.475 467.915 249.839 483.383Z" fill="#63B1AA" stroke="#0A524B" stroke-width="2.54863" stroke-linejoin="round"/>
<path d="M279.899 499.025C275.768 487.743 260.8 458.077 252.933 454.202" stroke="#0A524B" stroke-width="1.27432" stroke-linejoin="round"/>
<path d="M388.096 525.952C370.027 531.137 358.872 516.316 355.553 508.257C384.541 489.01 410.236 501.049 419.46 509.474C416.534 512.806 406.164 520.767 388.096 525.952Z" fill="#63B1AA" stroke="#0A524B" stroke-width="2.54863" stroke-linejoin="round"/>
<path d="M356.974 508.038C368.857 509.811 411.189 513.612 418.357 508.559" stroke="#0A524B" stroke-width="1.27432" stroke-linejoin="round"/>
<path d="M258.775 490.886C277.55 491.807 283.329 509.434 283.871 518.133C250.224 527.001 229.785 507.317 223.772 496.367C227.617 494.156 240 489.966 258.775 490.886Z" fill="#63B1AA" stroke="#0A524B" stroke-width="2.54863" stroke-linejoin="round"/>
<path d="M282.456 517.881C271.78 512.369 232.937 495.117 224.523 497.587" stroke="#0A524B" stroke-width="1.27432" stroke-linejoin="round"/>
<path d="M374.734 485.21C403.561 479.763 414.247 442.705 398.789 430.36C389.596 429.111 378.343 435.734 371.335 451.715C364.681 466.886 369.923 480.317 374.734 485.21Z" fill="#63B1AA" stroke="#0A524B" stroke-width="2.54863" stroke-linejoin="round"/>
<path d="M382.554 470.55C386.055 472.085 394.449 468.809 394.449 468.809" stroke="#0A524B" stroke-width="2.54863" stroke-linejoin="round" stroke-dasharray="0.03 0.03"/>
<path d="M379.471 477.582C382.317 477.438 386.854 476.61 386.854 476.61" stroke="#0A524B" stroke-width="2.54863" stroke-linejoin="round" stroke-dasharray="0.03 0.03"/>
<path d="M375.245 484.043C381.578 473.833 399.423 438.431 397.621 429.848" stroke="#0A524B" stroke-width="1.27432" stroke-linejoin="round"/>
<path d="M258.279 533.76C229.236 529.617 207.167 561.247 217.817 577.918C226.115 582.066 238.903 579.427 250.692 566.561C261.884 554.347 261.255 539.943 258.279 533.76Z" fill="#63B1AA" stroke="#0A524B" stroke-width="2.54863" stroke-linejoin="round"/>
<path d="M246.146 545.114C243.327 542.531 234.325 542.925 234.325 542.925" stroke="#0A524B" stroke-width="2.54863" stroke-linejoin="round" stroke-dasharray="0.03 0.03"/>
<path d="M251.335 539.452C248.595 538.669 244.032 537.99 244.032 537.99" stroke="#0A524B" stroke-width="2.54863" stroke-linejoin="round" stroke-dasharray="0.03 0.03"/>
<path d="M257.417 534.7C248.13 542.321 219.819 570.075 218.756 578.78" stroke="#0A524B" stroke-width="1.27432" stroke-linejoin="round"/>
<path d="M332.498 489.403C357.196 473.571 353.248 435.206 334.295 429.537C325.303 431.817 317.343 442.167 316.819 459.61C316.322 476.168 326.206 486.664 332.498 489.403Z" fill="#63B1AA" stroke="#0A524B" stroke-width="2.54863" stroke-linejoin="round"/>
<path d="M334.267 472.883C338.088 472.998 344.648 466.82 344.648 466.82" stroke="#0A524B" stroke-width="2.54863" stroke-linejoin="round" stroke-dasharray="0.03 0.03"/>
<path d="M335.848 462.731C339.708 461.572 342.294 460.375 346.229 456.668" stroke="#0A524B" stroke-width="2.54863" stroke-linejoin="round" stroke-dasharray="0.03 0.03"/>
<path d="M334.039 480.557C336.624 479.36 340.523 476.894 340.523 476.894" stroke="#0A524B" stroke-width="2.54863" stroke-linejoin="round" stroke-dasharray="0.03 0.03"/>
<path d="M332.535 488.129C334.59 476.292 337.901 436.785 333.02 429.499" stroke="#0A524B" stroke-width="1.27432" stroke-linejoin="round"/>
<path d="M299.611 543.416C271.126 550.435 262.487 588.023 278.599 599.502C287.846 600.245 298.719 593.015 304.841 576.674C310.653 561.161 304.683 548.038 299.611 543.416Z" fill="#63B1AA" stroke="#0A524B" stroke-width="2.54863" stroke-linejoin="round"/>
<path d="M292.608 558.481C289.028 557.14 280.826 560.871 280.826 560.871" stroke="#0A524B" stroke-width="2.54863" stroke-linejoin="round" stroke-dasharray="0.03 0.03"/>
<path d="M287.837 567.581C283.81 567.433 280.976 567.732 276.055 569.971" stroke="#0A524B" stroke-width="2.54863" stroke-linejoin="round" stroke-dasharray="0.03 0.03"/>
<path d="M295.3 551.291C292.466 551.59 287.981 552.666 287.981 552.666" stroke="#0A524B" stroke-width="2.54863" stroke-linejoin="round" stroke-dasharray="0.03 0.03"/>
<path d="M299.164 544.607C293.4 555.149 277.523 591.476 279.792 599.947" stroke="#0A524B" stroke-width="1.27432" stroke-linejoin="round"/>
<path d="M354.791 496.869C378.636 513.958 412.819 496.098 411.075 476.392C405.63 468.881 393.069 465.315 376.67 471.281C361.102 476.944 355.008 490.01 354.791 496.869Z" fill="#63B1AA" stroke="#0A524B" stroke-width="2.54863" stroke-linejoin="round"/>
<path d="M355.989 496.434C367.747 493.964 405.676 482.425 410.64 475.195" stroke="#0A524B" stroke-width="1.27432" stroke-linejoin="round"/>
<path d="M280.916 529.156C263.857 505.289 225.74 511.168 221.036 530.383C223.766 539.249 234.505 546.676 251.952 546.319C268.515 545.98 278.498 535.579 280.916 529.156Z" fill="#63B1AA" stroke="#0A524B" stroke-width="2.54863" stroke-linejoin="round"/>
<path d="M279.643 529.183C267.717 527.728 228.093 526.415 221.062 531.658" stroke="#0A524B" stroke-width="1.27432" stroke-linejoin="round"/>
<path d="M338.635 458.25C324.264 465.209 332.571 485.729 338.52 495.12C345.579 495.722 361.62 491.974 369.383 481.868C375.593 473.783 372.071 457.152 369.534 449.847C365.222 449.749 353.006 451.292 338.635 458.25Z" fill="#63B1AA" stroke="#0A524B" stroke-width="2.54863" stroke-linejoin="round"/>
<path d="M336.53 491.944C345.122 483.546 366.03 457.721 366.335 448.957" stroke="#0A524B" stroke-width="1.27432" stroke-linejoin="round"/>
<path d="M283.752 570.921C299.599 568.97 298.356 546.867 295.754 536.06C289.266 533.213 272.874 531.586 262.266 538.648C253.78 544.297 251.749 561.175 251.794 568.908C255.844 570.392 267.905 572.873 283.752 570.921Z" fill="#63B1AA" stroke="#0A524B" stroke-width="2.54863" stroke-linejoin="round"/>
<path d="M296.613 539.71C285.771 544.887 257.65 562.588 254.534 570.785" stroke="#0A524B" stroke-width="1.27432" stroke-linejoin="round"/>
<path d="M313.61 520.713C302.587 510.996 311.696 503.79 317.629 501.402C341.775 501.793 347.326 526.793 341.8 539.455C323.639 541.149 311.917 527.806 313.61 520.713Z" fill="#FFDDCA" stroke="#0A524B" stroke-width="2.54863" stroke-linejoin="round"/>
<path d="M327.592 519.872C334.891 532.625 323.944 536.507 317.558 536.854C294.829 528.695 297.639 503.241 306.954 493.038C324.69 497.293 331.481 513.703 327.592 519.872Z" fill="#FFDDCA" stroke="#0A524B" stroke-width="2.54863" stroke-linejoin="round"/>
<path d="M313.75 506.193C319.595 513.91 327.597 514.679 330.868 514.099C351.799 510.388 344.678 494.784 338.502 487.445C326.175 477.049 322.287 486.445 321.884 492.443C316.737 493.812 307.906 498.477 313.75 506.193Z" fill="#FFDDCA"/>
<path d="M351.724 551.429C341.471 551.606 340.578 544.06 341.413 540.265C331.898 522.806 360.271 525.981 362.745 531.696C365.22 537.411 364.541 551.208 351.724 551.429Z" fill="#FFDDCA"/>
<path d="M313.75 506.193C319.595 513.91 327.597 514.679 330.868 514.099C351.799 510.388 344.678 494.784 338.502 487.445C326.175 477.049 322.287 486.445 321.884 492.443C316.737 493.812 307.906 498.477 313.75 506.193Z" stroke="#0A524B" stroke-width="2.54863" stroke-linejoin="round"/>
<path d="M351.724 551.429C341.471 551.606 340.578 544.06 341.413 540.265C331.898 522.806 360.271 525.981 362.745 531.696C365.22 537.411 364.541 551.208 351.724 551.429Z" stroke="#0A524B" stroke-width="2.54863" stroke-linejoin="round"/>
<path d="M322.774 533.57C319.731 524.381 312.404 521.071 309.122 520.565C288.112 517.326 289.819 534.393 293.298 543.332C301.612 557.148 308.324 549.509 310.64 543.962C315.953 544.326 325.817 542.759 322.774 533.57Z" fill="#FFDDCA"/>
<path d="M301.421 478.503C311.184 481.643 309.595 489.074 307.58 492.397C310.955 511.992 285.123 499.834 284.624 493.626C284.126 487.418 289.219 474.579 301.421 478.503Z" fill="#FFDDCA"/>
<path d="M322.774 533.57C319.731 524.381 312.404 521.071 309.122 520.565C288.112 517.326 289.819 534.393 293.298 543.332C301.612 557.148 308.324 549.509 310.64 543.962C315.953 544.326 325.817 542.759 322.774 533.57Z" stroke="#0A524B" stroke-width="2.54863" stroke-linejoin="round"/>
<path d="M301.421 478.503C311.184 481.643 309.595 489.074 307.58 492.397C310.955 511.992 285.123 499.834 284.624 493.626C284.126 487.418 289.219 474.579 301.421 478.503Z" stroke="#0A524B" stroke-width="2.54863" stroke-linejoin="round"/>
<path d="M330.222 512.524C330.4 496.662 342.273 500.004 348.187 503.657C366.438 529.61 344.325 532.299 330.987 530.4C314.84 523.554 323.749 515.63 330.222 512.524Z" fill="#0A524B" stroke="#0A524B" stroke-width="2.54863" stroke-linejoin="round"/>
<path d="M309.224 522.263C303.939 537.22 293.779 530.227 289.359 524.861C280.456 494.409 302.254 498.996 314.266 505.096C327.342 516.785 316.353 521.411 309.224 522.263Z" fill="#0A524B" stroke="#0A524B" stroke-width="2.54863" stroke-linejoin="round"/>
<path d="M361.777 504.188C364.634 490.164 354.08 489.059 348.447 490.26C330.954 503.569 348.3 522.053 359.16 529.631C373.386 521.277 366.832 509.188 361.777 504.188Z" fill="#FFDDCA" stroke="#0A524B" stroke-width="2.54863" stroke-linejoin="round"/>
<path d="M276.668 519.975C269.441 532.328 279.074 536.778 284.794 537.459C305.645 530.503 295.188 507.412 287.353 496.736C271.193 500.055 273.497 513.612 276.668 519.975Z" fill="#FFDDCA" stroke="#0A524B" stroke-width="2.54863" stroke-linejoin="round"/>
<ellipse cx="285.811" cy="322.731" rx="180.681" ry="29.9758" transform="rotate(-4.39464 285.811 322.731)" fill="#F5B896" stroke="black" stroke-width="3.50216" stroke-linejoin="round"/>
<path d="M433.342 327.833C433.342 327.833 387.601 344.972 288.107 352.618C188.613 360.264 147.158 351.038 147.158 351.038C263.178 342.014 362.441 278.847 433.342 327.833Z" fill="#764738"/>
<path d="M433.342 327.833C433.342 327.833 403.692 311.075 337.947 325.255C272.202 339.436 147.158 351.038 147.158 351.038C263.179 342.014 362.441 278.847 433.342 327.833Z" fill="#633D32"/>
</svg>
