<svg width="772" height="789" viewBox="0 0 772 789" fill="none" xmlns="http://www.w3.org/2000/svg">
<circle cx="386.268" cy="412.801" r="375.5" fill="#E9EAEE"/>
<path d="M744.8 128.618V282C744.8 283.546 743.546 284.8 742 284.8H592C590.454 284.8 589.2 283.546 589.2 282V85C589.2 83.4536 590.454 82.2 592 82.2H699.804C700.563 82.2 701.289 82.5079 701.817 83.0532L744.012 126.671C744.518 127.194 744.8 127.892 744.8 128.618Z" fill="#BABECB" stroke="black" stroke-width="2.4"/>
<path d="M615.984 254.891H696.304M615.984 233.331H654.484M615.984 208.691H631.63M640.484 208.691H684.18M664.984 233.331H720.284" stroke="black" stroke-width="2.4" stroke-linecap="round"/>
<path d="M744.056 126.541H715.146C708.874 126.541 703.735 121.288 703.735 114.754V84.9135C717.681 98.2803 731.121 112.167 744.056 126.541Z" fill="#BABECB" stroke="black" stroke-width="1.9"/>
<path d="M270.618 251.344L270.611 251.356C234.608 321.6 187.015 432.189 161.238 535.643C148.348 587.375 140.931 637.254 143.112 679.382C145.285 721.35 156.967 755.412 182.004 776.064L488.963 779.129C437.993 722.588 395.204 560.013 614.116 341.348C618.414 335.865 622.825 328.952 626.073 321.604C629.337 314.219 631.391 306.474 631.046 299.337C630.704 292.244 627.997 285.736 621.674 280.682C615.309 275.595 605.168 271.892 589.799 270.713C550.813 267.723 533.873 257.124 522.138 247.144C520.132 245.438 518.294 243.77 516.538 242.175C508.041 234.461 501.447 228.475 486.905 228.329C469.042 228.151 448.481 234.336 429.659 240.617C427.059 241.485 424.491 242.354 421.969 243.208C415.399 245.434 409.141 247.553 403.444 249.253C395.58 251.599 388.627 253.198 383.26 253.144C377.949 253.091 368.921 251.354 358.344 249.239C357.419 249.054 356.48 248.866 355.53 248.676C345.559 246.676 334.319 244.422 323.287 242.841C311.191 241.109 299.438 240.201 289.948 241.298C280.402 242.402 273.536 245.484 270.618 251.344Z" fill="white" stroke="black" stroke-width="2.4"/>
<path d="M495.916 361.632L325.43 349.59" stroke="black" stroke-width="2.4" stroke-linecap="round" stroke-linejoin="round"/>
<path d="M463.358 438.343L292.871 426.301" stroke="black" stroke-width="2.4" stroke-linecap="round" stroke-linejoin="round"/>
<path d="M448.354 518.341L319.268 508.3" stroke="black" stroke-width="2.4" stroke-linecap="round" stroke-linejoin="round"/>
<path d="M167.268 761.301C190.468 766.101 226.268 725.801 218.768 680.301C238.268 727.301 194.768 778.301 183.268 775.801L183.107 775.766C174.064 773.8 173.73 773.728 167.268 761.301Z" fill="black" stroke="black" stroke-width="2.4"/>
<path d="M184.583 776.259L491.124 779.098C504.334 775.736 513.119 769.902 518.773 762.672C524.456 755.407 527.062 746.623 527.709 737.262C528.983 718.821 522.641 698.426 517.648 683.759L220.267 680.79C225.699 701.391 220.679 721.748 212.196 738.84C204.225 754.899 193.147 768.182 184.583 776.259Z" fill="white" stroke="black" stroke-width="2.4"/>
<path d="M309.171 492.334C313.686 489.494 318.457 487.077 323.422 485.128L320.479 507.349L300.091 498.899C302.963 496.51 306.007 494.317 309.169 492.335L309.171 492.334Z" fill="black" stroke="black" stroke-width="2.4"/>
<path d="M307.875 490.293L307.874 490.294C304.275 492.55 300.842 495.081 297.602 497.84L258.184 481.538L257.325 480.134L256.925 479.115C260.92 469.703 269.324 456.771 281.559 447.769C293.817 438.749 309.898 433.679 329.36 440.005L323.76 482.413C318.208 484.496 312.902 487.153 307.875 490.293Z" fill="white" stroke="black" stroke-width="2.4"/>
<path d="M125.105 86.4517L39.9655 103.875L6.02394 48.2956L41.9212 21.1635L75.5153 3.79322C75.668 3.71426 75.8557 3.76491 75.9475 3.90987L90.2051 26.4089L125.105 86.4517Z" fill="#465173" stroke="black" stroke-width="2.4"/>
<path d="M75.681 2.97129C75.6812 2.97118 75.6809 2.97391 75.6799 2.97971C75.6804 2.9743 75.6809 2.9714 75.681 2.97129ZM73.4384 4.20496C74.2437 3.92598 74.8831 3.74884 75.3618 3.65917C75.0733 4.14113 74.6094 4.7724 73.9568 5.54443C72.4734 7.29922 70.1515 9.62247 67.1476 12.2979C61.1472 17.6422 52.517 24.3107 42.6606 30.5347C32.8088 36.7558 23.4788 41.3383 16.4767 44.1172C12.9706 45.5086 10.0779 46.4358 8.01143 46.8952C7.10675 47.0963 6.4001 47.1986 5.88889 47.2217C6.18696 46.82 6.64989 46.302 7.29391 45.6695C8.83871 44.1522 11.2451 42.149 14.3426 39.7909C20.5267 35.0831 29.3487 29.0484 39.2403 22.8022C49.1277 16.5586 58.3159 11.3115 65.1728 7.87479C68.6074 6.15333 71.4245 4.90263 73.4384 4.20496ZM5.20348 47.1808C5.19976 47.1795 5.19807 47.1788 5.19815 47.1788C5.19823 47.1787 5.20009 47.1794 5.20348 47.1808Z" fill="#465173" stroke="black" stroke-width="2.29687"/>
<path d="M279.074 468.019C278.062 470.06 277.385 471.892 276.944 473.309L48.6217 75.6598C54.214 73.7983 60.1545 71.1309 66.0704 67.7162L66.0711 67.7157C72.803 63.823 78.7032 59.4208 83.4275 54.9466L315.218 451.158C314.04 450.679 312.62 450.202 311.005 449.847C306.121 448.774 299.46 448.823 292.398 453.256C285.424 457.634 281.376 463.378 279.074 468.019ZM318.265 451.609L85.1961 53.2126C89.3429 48.9998 92.4514 44.7343 94.1782 40.7779C94.8762 39.1785 95.3605 37.5983 95.5845 36.0762L328.986 438.219C325.727 440.417 322.913 444.061 320.897 447.155C319.787 448.857 318.89 450.44 318.265 451.609ZM270.552 475.363C266.781 475.775 261.918 476.888 257.281 479.674L23.8768 77.5136C24.4681 77.7463 25.0896 77.9454 25.7368 78.1122C28.8664 78.9187 32.692 78.9988 36.9285 78.4452C39.8472 78.0638 42.9899 77.3777 46.2764 76.3995L275.231 475.149C274.03 475.125 272.419 475.159 270.552 475.363Z" fill="#E74F4F" stroke="black" stroke-width="2.4"/>
</svg>
