<svg width="277" height="351" viewBox="0 0 277 351" fill="none" xmlns="http://www.w3.org/2000/svg">
<path d="M140.824 107.382H130.529V337.223H140.824V107.382Z" fill="#465173" stroke="black" stroke-width="3.17519"/>
<path d="M205.625 320.588C205.632 324.103 199.947 330.264 196.525 334.359L196.549 347.209L209.985 349.708C209.867 345.773 209.96 331.996 211.272 323.644C212.912 313.204 205.616 315.726 205.625 320.588Z" fill="#465173" stroke="black" stroke-width="1.99932" stroke-linecap="round" stroke-linejoin="round"/>
<path d="M31.8428 345.682C47.6745 349.613 56.5224 348.572 67.2891 346.362C96.4319 340.378 108.865 342.269 125.16 342.947C133.648 343.299 143.628 344.317 158.472 345.751C164.487 346.332 188.025 349.055 195.863 349.756L195.863 328.49L141.949 318.29L137.631 311.463C136.436 309.392 135.084 307.147 133.659 305.181C127.573 296.782 113.986 278.764 109.597 281.284C102.439 285.392 57.2906 299.433 31.5175 303.594L19.2999 305.188C19.2999 305.188 16.0112 341.752 31.8428 345.682Z" fill="#BABECB"/>
<path d="M45.1534 315.654C73.2607 311.747 116.13 312.909 116.13 312.909L141.949 318.29M141.949 318.29L195.863 328.49L195.863 349.756C188.025 349.055 164.487 346.332 158.472 345.751C143.628 344.317 133.648 343.299 125.16 342.947C108.865 342.269 96.4319 340.378 67.2891 346.362C56.5224 348.572 47.6745 349.613 31.8428 345.682C16.0112 341.752 19.2999 305.188 19.2999 305.188L31.5175 303.594C57.2906 299.433 102.439 285.392 109.597 281.284C113.986 278.764 127.573 296.782 133.659 305.181M141.949 318.29C140.801 317.783 137.496 310.476 133.659 305.181M141.949 318.29L133.659 305.181" stroke="black" stroke-width="1.99932" stroke-linecap="round" stroke-linejoin="round"/>
<path d="M109.983 304.406C107.776 304.879 100.33 312.863 100.33 312.863L114.202 312.861C114.202 312.861 112.19 303.932 109.983 304.406Z" fill="white" stroke="black" stroke-width="1.99932" stroke-linecap="round" stroke-linejoin="round"/>
<path d="M47.663 321.417C46.036 326.645 39.85 336.122 28.1196 332.21" stroke="black" stroke-width="1.99932" stroke-linecap="round" stroke-linejoin="round"/>
<path d="M41.9868 223.664C51.7606 223.664 60.904 221.772 71.624 217.351C76.038 224.603 84.8662 230.18 87.3885 233.753C79.5688 236.528 62.7958 243.52 54.5981 245.096C67.7145 267.04 65.5284 294.603 65.9485 308.476C56.1747 305.008 44.8243 302.846 36.3113 306.9C31.0145 309.422 18.5501 307.531 12.9801 306.269C12.9801 293.335 15.5023 278.832 20.8626 265.282C17.0789 263.075 7.62037 261.498 1.31445 259.922C5.35041 245.041 20.2322 227.027 27.1685 219.88L34.5777 221.772L41.9868 223.664Z" fill="#465173"/>
<path d="M20.8626 265.282C17.0789 263.075 7.62037 261.498 1.31445 259.922C5.35041 245.041 20.2322 227.027 27.1685 219.88L34.5777 221.772L41.9868 223.664C51.7606 223.664 60.904 221.772 71.624 217.351C76.038 224.603 84.8662 230.18 87.3885 233.753C79.5688 236.528 62.7958 243.52 54.598 245.096M20.8626 265.282C15.5023 278.832 12.9801 293.335 12.9801 306.269C18.5501 307.531 31.0145 309.422 36.3113 306.9C44.8243 302.846 56.1747 305.008 65.9485 308.476C65.5284 294.603 67.7145 267.04 54.598 245.096M20.8626 265.282L27.1685 268.435C27.1685 261.176 29.375 253.294 31.582 241.313M54.598 245.096C53.5835 243.331 50.7071 238.896 49.5536 237.53" stroke="black" stroke-width="1.99932" stroke-linecap="round" stroke-linejoin="round"/>
<path d="M87.3332 232.575C88.3399 231.775 84.1518 225.222 82.5805 223.311C81.6026 224.167 81.0704 227.275 79.812 228.275C81.6607 229.806 86.3259 233.375 87.3332 232.575Z" fill="black" stroke="black" stroke-width="1.99932" stroke-linecap="round" stroke-linejoin="round"/>
<path d="M1 260.292C7.60674 264.393 22.0277 271.892 26.8535 269.08C18.6665 265.858 2.03431 259.588 1 260.292Z" fill="black" stroke="black" stroke-width="1.99932" stroke-linecap="round" stroke-linejoin="round"/>
<path d="M14.9703 325.644C13.3595 320.711 17.1114 288.798 23.5312 266.37C17.0796 262.752 10.4585 261.956 7.68878 261.956C3.72653 282.209 6.90556 305.682 6.43335 325.644C4.90706 330.604 4.93343 337.816 7.06376 339.832C8.24069 340.946 9.00293 340.092 8.83095 339.226C9.23664 340.281 9.85747 340.943 10.1433 340.943C10.4585 340.943 11.4041 341.177 11.7199 339.998C12.4271 341.459 12.9808 341.177 13.5507 341.177C15.6486 341.093 13.6831 337.757 14.9703 333.091C15.6858 334.463 17.6987 336.776 20.0262 335.053C20.6931 334.559 15.5234 329.567 14.9703 325.644Z" fill="#F5B896"/>
<path d="M11.7199 339.998C12.4271 341.459 12.9808 341.177 13.5507 341.177C15.6486 341.093 13.6831 337.757 14.9703 333.091C15.6858 334.463 17.6987 336.776 20.0262 335.053C20.6931 334.559 15.5234 329.567 14.9703 325.644C13.3595 320.711 17.1114 288.798 23.5312 266.37C17.0796 262.752 10.4585 261.956 7.68878 261.956C3.72653 282.209 6.90556 305.682 6.43335 325.644C4.90706 330.604 4.93343 337.816 7.06376 339.832C8.3971 341.093 9.19709 339.832 8.7123 338.886M11.7199 339.998C11.4041 341.177 10.4585 340.943 10.1433 340.943C9.8281 340.943 9.10421 340.136 8.7123 338.886M11.7199 339.998C11.7199 339.998 10.6041 338.571 11.0122 333.091M8.7123 338.886C8.7123 338.886 7.13567 335.733 8.08129 333.091" stroke="black" stroke-width="1.99932" stroke-linecap="round" stroke-linejoin="round"/>
<path d="M81.7537 205.592C84.6859 208.811 77.6141 214.197 70.993 217.666C74.9822 222.519 79.3909 229.721 82.32 229.194C84.6319 226.199 102.556 212.235 96.5312 205.592C93.1419 201.856 65.722 182.33 54.0462 175.441C54.033 171.847 48.6337 170.069 46.0593 169.276C43.9997 168.642 42.9127 173.353 42.6262 175.787C36.2077 174.815 35.313 180.86 37.5254 180.248C42.0833 178.987 43.7708 181.185 46.6328 182.465C49.8646 181.374 78.0887 201.568 81.7537 205.592Z" fill="#F5B896" stroke="black" stroke-width="1.99932" stroke-linecap="round" stroke-linejoin="round"/>
<path d="M46.3914 177.77C47.3047 176.736 45.2109 174.271 43.5144 172.772C41.8186 171.273 40.9215 171.58 40.2491 172.341C39.5762 173.103 39.382 174.03 41.0779 175.53C42.7744 177.028 45.4776 178.804 46.3914 177.77Z" fill="#F5B896" stroke="black" stroke-width="1.99932" stroke-linecap="round" stroke-linejoin="round"/>
<path d="M48.5604 175.157C49.4742 174.123 47.3799 171.658 45.684 170.16C43.9875 168.66 43.091 168.967 42.4181 169.728C41.7451 170.49 41.5509 171.418 43.2468 172.917C44.9433 174.416 47.6465 176.191 48.5604 175.157Z" fill="#F5B896" stroke="black" stroke-width="1.99932" stroke-linecap="round" stroke-linejoin="round"/>
<path d="M51.0306 173.099C51.9445 172.066 49.8501 169.601 48.1542 168.102C46.4577 166.603 45.5612 166.91 44.8883 167.671C44.2153 168.432 44.0212 169.36 45.717 170.859C47.4135 172.358 50.1167 174.134 51.0306 173.099Z" fill="#F5B896" stroke="black" stroke-width="1.99932" stroke-linecap="round" stroke-linejoin="round"/>
<path d="M58.8258 205.103V180.826C58.8258 180.826 56.303 168.207 40.8543 167.892C25.405 167.576 23.8284 180.188 23.8284 180.188C23.8284 186.226 25.7406 189.618 28.1076 191.456C25.4997 189.887 21.5512 188.647 20.6757 192.807C19.6666 197.599 24.8794 199.428 27.612 199.743C29.6297 210.589 27.612 218.555 26.3506 221.182C28.8734 226.227 37.701 225.386 41.7999 224.336V216.453C58.6994 216.958 58.8258 210.778 58.8258 205.103Z" fill="#F5B896" stroke="black" stroke-width="1.99932" stroke-linejoin="round"/>
<path d="M41.4847 216.453C39.2758 216.353 35.6468 215.696 34.6676 213.878C34.6268 213.788 34.5867 213.7 34.5483 213.615C34.5819 213.706 34.6221 213.793 34.6676 213.878C36.1987 217.216 39.5197 223.529 41.4847 224.02V216.453Z" fill="black"/>
<path d="M34.6676 213.878C35.6468 215.696 39.2758 216.353 41.4847 216.453V224.02C39.5197 223.529 36.1987 217.216 34.6676 213.878ZM34.6676 213.878C34.6268 213.788 34.5867 213.7 34.5483 213.615C34.5819 213.706 34.6221 213.793 34.6676 213.878Z" stroke="black" stroke-width="1.99932" stroke-linecap="round" stroke-linejoin="round"/>
<path d="M29.7965 192.8V184.918C32.0862 183.783 36.4595 183.975 42.7457 183.656C43.1208 183.637 43.4216 172.315 44.3223 172.306L46.0248 181.063C46.2423 182.567 46.4203 183.656 46.5293 183.656C52.855 183.656 58.8254 183.551 61.0324 184.918C64.5003 181.449 57.5646 160.955 40.5386 166.631C32.4314 164.319 17.2074 168.207 21.9367 190.277C25.4046 188.701 28.6405 191.644 29.7965 192.8Z" fill="black"/>
<path d="M46.5293 183.656C52.855 183.656 58.8254 183.551 61.0324 184.918C64.5003 181.449 57.5646 160.955 40.5386 166.631C32.4314 164.319 17.2074 168.207 21.9367 190.277C25.4046 188.701 28.6405 191.644 29.7965 192.8V184.918C32.0862 183.783 36.4595 183.975 42.7457 183.656C43.1208 183.637 43.4216 172.315 44.3223 172.306M46.5293 183.656C46.1776 183.656 45.1037 172.298 44.3223 172.306M46.5293 183.656L44.3223 172.306" stroke="black" stroke-width="1.99932" stroke-linecap="round" stroke-linejoin="round"/>
<path d="M45.1855 198.139C45.6931 196.473 47.4549 195.534 49.1208 196.042C50.7861 196.549 51.7252 198.311 51.2176 199.977C50.9168 200.963 50.1761 201.695 49.276 202.022" stroke="black" stroke-width="1.57841" stroke-linecap="round" stroke-linejoin="round"/>
<path d="M42.9326 197.179C42.4102 197.179 41.9867 196.756 41.9867 196.233C41.9867 195.711 42.4102 195.288 42.9326 195.288C43.4549 195.288 43.8784 195.711 43.8784 196.233C43.8784 196.756 43.4549 197.179 42.9326 197.179Z" fill="black"/>
<path d="M53.0224 195.911C52.5 195.911 52.0765 195.488 52.0765 194.965C52.0765 194.443 52.5 194.02 53.0224 194.02C53.5448 194.02 53.9683 194.443 53.9683 194.965C53.9683 195.488 53.5448 195.911 53.0224 195.911Z" fill="black"/>
<path d="M45.9992 189.893C42.1766 191.732 41.9926 179.728 38.3174 191.17" stroke="black" stroke-width="1.57841" stroke-linecap="round" stroke-linejoin="round"/>
<path d="M46.2114 206.588C47.1091 206.003 49.2682 205.232 50.719 206.826" stroke="black" stroke-width="1.57841" stroke-linecap="round" stroke-linejoin="round"/>
<path d="M49.5537 188.453C50.6449 189.998 52.7321 189.674 53.4782 187.998" stroke="black" stroke-width="1.57841" stroke-linecap="round" stroke-linejoin="round"/>
<path d="M26.8535 221.135V219.558L38.2039 221.135L41.9876 224.287L37.5735 226.179L36.9425 228.701L38.8343 234.061V237.845L33.4746 228.701L26.8535 221.135Z" fill="#F5B896"/>
<path d="M38.2036 226.494C36.9428 226.242 36.627 228.07 36.627 229.017L35.9966 224.918C37.5103 224.918 41.2514 224.287 42.6177 223.971C42.5128 223.131 42.4283 221.449 42.9329 221.449C43.4375 221.449 44.1943 222.29 44.5095 222.711V230.593C42.9329 230.593 39.7803 226.81 38.2036 226.494Z" fill="white" stroke="black" stroke-width="1.57841" stroke-linecap="round" stroke-linejoin="round"/>
<path d="M33.0615 228.53C33.1244 228.71 33.1585 228.876 33.1585 229.016L33.0615 228.53C32.6989 227.489 31.3955 225.964 30.3211 226.179C28.7445 226.494 24.9614 228.071 23.3848 228.071L24.6456 220.504C24.9614 220.083 25.7176 219.243 26.2222 219.243C26.7268 219.243 26.6429 220.294 26.5374 221.135C28.1141 223.026 30.6992 224.287 32.2129 224.287L33.0615 228.53Z" fill="white"/>
<path d="M33.1585 229.016C33.1585 228.071 31.5819 225.927 30.3211 226.179C28.7445 226.494 24.9614 228.071 23.3848 228.071L24.6456 220.504C24.9614 220.083 25.7176 219.243 26.2222 219.243C26.7268 219.243 26.6429 220.294 26.5374 221.135C28.1141 223.026 30.6992 224.287 32.2129 224.287L33.1585 229.016ZM33.1585 229.016C34.42 231.539 37.6356 231.917 39.1493 240.997" stroke="black" stroke-width="1.57841" stroke-linecap="round" stroke-linejoin="round"/>
<path d="M36.6265 229.332C37.2575 231.539 39.7797 233.115 39.1493 240.997" stroke="black" stroke-width="1.57841" stroke-linecap="round" stroke-linejoin="round"/>
<path d="M130.699 4.3699C131.533 2.84219 133.299 2 135.19 2C137.081 2 138.848 2.84195 139.681 4.36966L193.9 103.684L193.902 103.686C194.309 104.428 194.51 105.258 194.488 106.095C194.465 106.932 194.219 107.751 193.772 108.472C193.323 109.194 192.688 109.793 191.925 110.211C191.162 110.628 190.298 110.848 189.417 110.846H189.416H80.965H80.9632C80.0823 110.848 79.2176 110.628 78.4535 110.211C77.6895 109.793 77.0537 109.192 76.6055 108.47C76.1572 107.749 75.9103 106.929 75.8876 106.091C75.8642 105.254 76.0655 104.422 76.473 103.679L76.4736 103.678L130.699 4.3699Z" fill="white" stroke="black" stroke-width="3.17519"/>
<path d="M131.956 16.937C132.552 15.8043 133.818 15.1729 135.19 15.1729C136.562 15.1729 137.827 15.8041 138.423 16.9368L138.424 16.937L179.911 95.6879L179.912 95.6903C180.209 96.2506 180.356 96.8786 180.34 97.5138C180.323 98.149 180.143 98.7687 179.818 99.3122C179.492 99.8557 179.031 100.305 178.482 100.616C177.934 100.927 177.314 101.09 176.684 101.088H176.682H93.6974L93.6956 101.089C93.0652 101.09 92.445 100.927 91.8954 100.616C91.3459 100.305 90.8851 99.8545 90.5591 99.3104C90.2331 98.7663 90.0528 98.146 90.0354 97.5108C90.0186 96.875 90.166 96.2458 90.4632 95.6849L90.4638 95.6837L131.956 16.937Z" fill="#465173"/>
<path d="M91.8954 100.616C92.445 100.927 93.0652 101.09 93.6956 101.089L93.6974 101.088H176.682H176.684C177.314 101.09 177.934 100.927 178.482 100.616C179.031 100.305 179.492 99.8557 179.818 99.3122C180.143 98.7687 180.323 98.149 180.34 97.5138C180.356 96.8786 180.209 96.2506 179.912 95.6903L179.911 95.6879L138.424 16.937L138.423 16.9368C137.827 15.8041 136.562 15.1729 135.19 15.1729C133.818 15.1729 132.552 15.8043 131.956 16.937L90.4638 95.6837L90.4632 95.6849C90.166 96.2458 90.0186 96.875 90.0354 97.5108C90.0528 98.146 90.2331 98.7663 90.5591 99.3104M91.8954 100.616L91.4268 101.443M91.8954 100.616C91.3459 100.305 90.8851 99.8545 90.5591 99.3104M90.5591 99.3104L89.7441 99.7994" stroke="black" stroke-width="3.17519"/>
<path d="M139.272 40.0919C139.275 39.8374 139.177 39.5922 138.998 39.411C138.819 39.2299 138.575 39.1279 138.321 39.1279H132.054C131.8 39.1279 131.556 39.2299 131.377 39.411C131.199 39.5922 131.1 39.8374 131.103 40.0919L131.564 74.8867C131.571 75.4069 131.994 75.8252 132.515 75.8252H137.86C138.381 75.8252 138.804 75.4069 138.811 74.8867L139.272 40.0919ZM137.76 89.11L137.766 89.1064C138.526 88.6306 139.134 87.9977 139.581 87.2187C140.052 86.4235 140.286 85.548 140.286 84.6126C140.286 83.1983 139.782 81.9597 138.795 80.9464C137.807 79.933 136.588 79.4063 135.188 79.4063C133.787 79.4063 132.568 79.933 131.58 80.9464C130.593 81.9597 130.089 83.1983 130.089 84.6126C130.089 86.0268 130.593 87.2661 131.58 88.2788C132.568 89.2921 133.787 89.8189 135.188 89.8189C136.12 89.8189 136.986 89.587 137.76 89.11Z" fill="white" stroke="black" stroke-width="3.17519" stroke-linejoin="round"/>
<path d="M89.8572 122.507H186.684V146.95H89.865L76.3525 134.55L89.8572 122.507Z" fill="white" stroke="black" stroke-width="3.17519"/>
<path d="M268.097 337.422C268.184 337.696 268.455 337.869 268.74 337.834L275.649 336.995L274.493 341.105L268.534 340.64C268.356 340.626 268.181 340.692 268.057 340.82C267.933 340.949 267.871 341.125 267.891 341.303C267.99 342.229 267.427 343.015 266.113 343.678C264.806 344.336 262.93 344.766 260.864 344.998C258.81 345.229 256.618 345.258 254.713 345.145C252.79 345.03 251.219 344.774 250.376 344.461C248.396 343.728 246.402 343.663 243.523 343.777C242.718 343.809 241.841 343.855 240.87 343.905C238.352 344.037 235.205 344.202 231.042 344.238C225.75 344.285 223.109 342.587 221.63 340.784C220.876 339.865 220.399 338.89 220.033 338.024C219.941 337.807 219.857 337.598 219.776 337.397L219.758 337.354C219.685 337.17 219.613 336.992 219.543 336.826C219.492 336.708 219.441 336.589 219.387 336.474C219.617 336.416 219.923 336.375 220.308 336.354C221.107 336.31 222.152 336.354 223.39 336.428C223.78 336.452 224.187 336.479 224.61 336.506C226.84 336.651 229.481 336.824 232.108 336.717C232.118 336.717 232.129 336.716 232.14 336.715C235.347 336.411 237.821 336.364 239.49 336.391C240.324 336.405 240.956 336.438 241.378 336.467C241.588 336.482 241.747 336.495 241.851 336.505C241.891 336.509 241.923 336.512 241.947 336.514C241.955 336.515 241.96 336.516 241.966 336.516L241.993 336.519L241.999 336.52H242C242.291 336.555 242.565 336.374 242.647 336.092C242.729 335.811 242.596 335.511 242.331 335.384C240.914 334.7 239.592 333.485 238.353 331.904C237.117 330.327 235.987 328.416 234.942 326.384C233.898 324.352 232.948 322.215 232.065 320.187C231.922 319.86 231.781 319.534 231.641 319.213C231.067 317.889 230.52 316.627 229.995 315.502C230.701 315.55 231.541 315.751 232.476 316.089C233.805 316.571 235.26 317.307 236.679 318.176C239.536 319.925 242.14 322.144 243.243 323.769C245.19 326.635 248.612 329.148 250.076 330.05C250.089 330.058 250.102 330.066 250.116 330.073C251.091 330.575 254.405 331.806 260.217 332.967C263.045 333.531 264.956 334.433 266.191 335.305C267.441 336.189 267.967 337.019 268.097 337.422Z" fill="#E74F4F" stroke="black" stroke-width="2.00281" stroke-linecap="round" stroke-linejoin="round"/>
</svg>
