<svg width="624" height="801" viewBox="0 0 624 801" fill="none" xmlns="http://www.w3.org/2000/svg">
<rect x="376.883" y="177.444" width="17.1786" height="383.547" fill="#465173" stroke="black" stroke-width="3.17519"/>
<path d="M502.199 533.232C502.21 539.097 492.724 549.378 487.014 556.211L487.054 577.655L509.475 581.825C509.278 575.259 509.433 552.268 511.623 538.331C514.359 520.909 502.184 525.118 502.199 533.232Z" fill="#465173" stroke="black" stroke-width="1.99932" stroke-linecap="round" stroke-linejoin="round"/>
<path d="M212.2 575.107C238.619 581.666 253.384 579.93 271.351 576.241C319.983 566.256 340.731 569.411 367.923 570.542C382.087 571.13 398.741 572.829 423.512 575.222C433.55 576.192 472.829 580.736 485.908 581.906L485.909 546.417L395.939 529.397L388.734 518.003C386.739 514.548 384.483 510.802 382.105 507.52C371.95 493.505 349.277 463.438 341.952 467.643C330.008 474.498 254.666 497.928 211.657 504.872L191.269 507.533C191.269 507.533 185.781 568.548 212.2 575.107Z" fill="#BABECB"/>
<path d="M234.412 524.998C281.316 518.477 352.855 520.417 352.855 520.417L395.939 529.397M395.939 529.397L485.909 546.417L485.908 581.906C472.829 580.736 433.55 576.192 423.512 575.222C398.741 572.829 382.087 571.13 367.923 570.542C340.731 569.411 319.983 566.256 271.351 576.241C253.384 579.93 238.619 581.666 212.2 575.107C185.781 568.548 191.269 507.533 191.269 507.533L211.657 504.872C254.666 497.928 330.008 474.498 341.952 467.643C349.277 463.438 371.95 493.505 382.105 507.52M395.939 529.397C394.024 528.551 388.508 516.356 382.105 507.52M395.939 529.397L382.105 507.52" stroke="black" stroke-width="1.99932" stroke-linecap="round" stroke-linejoin="round"/>
<path d="M342.596 506.227C338.913 507.017 326.488 520.339 326.488 520.339L349.637 520.337C349.637 520.337 346.279 505.437 342.596 506.227Z" fill="white" stroke="black" stroke-width="1.99932" stroke-linecap="round" stroke-linejoin="round"/>
<path d="M238.6 534.614C235.885 543.338 225.562 559.153 205.987 552.624" stroke="black" stroke-width="1.99932" stroke-linecap="round" stroke-linejoin="round"/>
<path d="M229.128 371.489C245.438 371.489 260.696 368.332 278.585 360.954C285.951 373.055 300.683 382.362 304.892 388.325C291.843 392.955 263.853 404.623 250.173 407.254C272.061 443.873 268.413 489.869 269.114 513.019C252.804 507.232 233.863 503.624 219.657 510.389C210.818 514.598 190.018 511.441 180.723 509.336C180.723 487.753 184.932 463.55 193.877 440.939C187.563 437.256 171.779 434.625 161.256 431.994C167.991 407.161 192.825 377.101 204.4 365.175L216.764 368.332L229.128 371.489Z" fill="#465173"/>
<path d="M193.877 440.939C187.563 437.256 171.779 434.625 161.256 431.994C167.991 407.161 192.825 377.101 204.4 365.175L216.764 368.332L229.128 371.489C245.438 371.489 260.696 368.332 278.585 360.954C285.951 373.055 300.683 382.362 304.892 388.325C291.843 392.955 263.853 404.623 250.173 407.254M193.877 440.939C184.932 463.55 180.723 487.753 180.723 509.336C190.018 511.441 210.818 514.598 219.657 510.389C233.863 503.624 252.804 507.232 269.114 513.019C268.413 489.869 272.061 443.873 250.173 407.254M193.877 440.939L204.4 446.2C204.4 434.087 208.082 420.933 211.765 400.94M250.173 407.254C248.48 404.308 243.68 396.907 241.755 394.627" stroke="black" stroke-width="1.99932" stroke-linecap="round" stroke-linejoin="round"/>
<path d="M304.8 386.359C306.48 385.024 299.491 374.088 296.869 370.899C295.237 372.328 294.349 377.514 292.249 379.183C295.334 381.739 303.119 387.694 304.8 386.359Z" fill="black" stroke="black" stroke-width="1.99932" stroke-linecap="round" stroke-linejoin="round"/>
<path d="M160.731 432.612C171.756 439.455 195.821 451.97 203.874 447.277C190.212 441.9 162.457 431.438 160.731 432.612Z" fill="black" stroke="black" stroke-width="1.99932" stroke-linecap="round" stroke-linejoin="round"/>
<path d="M184.044 541.669C181.356 533.436 187.617 480.181 198.33 442.755C187.564 436.718 176.515 435.389 171.893 435.389C165.281 469.186 170.586 508.357 169.798 541.669C167.251 549.946 167.295 561.98 170.85 565.345C172.814 567.203 174.086 565.779 173.799 564.334C174.476 566.093 175.512 567.199 175.989 567.199C176.515 567.199 178.093 567.589 178.62 565.621C179.8 568.06 180.724 567.589 181.675 567.589C185.176 567.449 181.896 561.882 184.044 554.095C185.238 556.385 188.597 560.245 192.481 557.369C193.594 556.545 184.967 548.214 184.044 541.669Z" fill="#F5B896"/>
<path d="M178.62 565.621C179.8 568.06 180.724 567.589 181.675 567.589C185.176 567.449 181.896 561.882 184.044 554.095C185.238 556.385 188.597 560.245 192.481 557.369C193.594 556.545 184.967 548.214 184.044 541.669C181.356 533.436 187.617 480.181 198.33 442.755C187.564 436.718 176.515 435.389 171.893 435.389C165.281 469.186 170.586 508.357 169.798 541.669C167.251 549.946 167.295 561.98 170.85 565.345C173.075 567.449 174.41 565.345 173.601 563.766M178.62 565.621C178.093 567.589 176.515 567.199 175.989 567.199C175.463 567.199 174.255 565.852 173.601 563.766M178.62 565.621C178.62 565.621 176.758 563.24 177.439 554.095M173.601 563.766C173.601 563.766 170.97 558.505 172.548 554.095" stroke="black" stroke-width="1.99932" stroke-linecap="round" stroke-linejoin="round"/>
<path d="M295.489 341.332C300.382 346.704 288.581 355.692 277.532 361.48C284.189 369.578 291.546 381.597 296.434 380.718C300.292 375.72 330.203 352.417 320.149 341.332C314.493 335.097 268.736 302.514 249.252 291.018C249.23 285.019 240.22 282.053 235.924 280.73C232.487 279.672 230.673 287.533 230.195 291.595C219.484 289.973 217.991 300.06 221.683 299.039C229.289 296.934 232.105 300.602 236.881 302.738C242.274 300.918 289.373 334.617 295.489 341.332Z" fill="#F5B896" stroke="black" stroke-width="1.99932" stroke-linecap="round" stroke-linejoin="round"/>
<path d="M236.478 294.903C238.002 293.178 234.508 289.065 231.677 286.563C228.847 284.062 227.35 284.574 226.228 285.844C225.105 287.115 224.781 288.663 227.611 291.165C230.442 293.666 234.953 296.629 236.478 294.903Z" fill="#F5B896" stroke="black" stroke-width="1.99932" stroke-linecap="round" stroke-linejoin="round"/>
<path d="M240.098 290.543C241.623 288.818 238.128 284.705 235.298 282.204C232.467 279.702 230.971 280.214 229.848 281.484C228.725 282.755 228.401 284.303 231.231 286.805C234.062 289.306 238.573 292.269 240.098 290.543Z" fill="#F5B896" stroke="black" stroke-width="1.99932" stroke-linecap="round" stroke-linejoin="round"/>
<path d="M244.22 287.109C245.745 285.384 242.25 281.271 239.42 278.769C236.589 276.268 235.093 276.78 233.97 278.05C232.847 279.321 232.523 280.869 235.353 283.37C238.184 285.872 242.695 288.835 244.22 287.109Z" fill="#F5B896" stroke="black" stroke-width="1.99932" stroke-linecap="round" stroke-linejoin="round"/>
<path d="M257.228 340.515V300.003C257.228 300.003 253.018 278.945 227.238 278.419C201.457 277.893 198.826 298.938 198.826 298.938C198.826 309.015 202.017 314.675 205.967 317.742C201.615 315.124 195.026 313.054 193.565 319.996C191.881 327.993 200.58 331.045 205.14 331.571C208.507 349.67 205.14 362.964 203.035 367.348C207.245 375.766 221.976 374.363 228.816 372.61V359.456C257.017 360.298 257.228 349.986 257.228 340.515Z" fill="#F5B896" stroke="black" stroke-width="1.99932" stroke-linejoin="round"/>
<path d="M228.29 359.456C224.604 359.288 218.548 358.192 216.914 355.158C216.846 355.008 216.779 354.862 216.715 354.72C216.771 354.871 216.838 355.016 216.914 355.158C219.469 360.729 225.011 371.263 228.29 372.083V359.456Z" fill="black" stroke="black" stroke-width="1.99932" stroke-linecap="round" stroke-linejoin="round"/>
<path d="M208.785 319.984V306.831C212.606 304.937 219.904 305.258 230.394 304.726C231.02 304.694 231.522 285.801 233.025 285.785L235.866 300.399C236.229 302.908 236.526 304.726 236.708 304.726C247.264 304.726 257.227 304.551 260.91 306.831C266.697 301.043 255.123 266.844 226.711 276.315C213.182 272.457 187.777 278.945 195.669 315.775C201.456 313.144 206.856 318.055 208.785 319.984Z" fill="black"/>
<path d="M236.708 304.726C247.264 304.726 257.227 304.551 260.91 306.831C266.697 301.043 255.123 266.844 226.711 276.315C213.182 272.457 187.777 278.945 195.669 315.775C201.456 313.144 206.856 318.055 208.785 319.984V306.831C212.606 304.937 219.904 305.258 230.394 304.726C231.02 304.694 231.522 285.801 233.025 285.785M236.708 304.726C236.121 304.726 234.329 285.772 233.025 285.785M236.708 304.726L233.025 285.785" stroke="black" stroke-width="1.99932" stroke-linecap="round" stroke-linejoin="round"/>
<path d="M234.466 328.894C235.313 326.114 238.253 324.547 241.033 325.394C243.812 326.241 245.379 329.181 244.532 331.961C244.03 333.607 242.794 334.828 241.292 335.374" stroke="black" stroke-width="1.57841" stroke-linecap="round" stroke-linejoin="round"/>
<circle cx="1.57841" cy="1.57841" r="1.57841" transform="matrix(-1 0 0 1 232.285 324.136)" fill="black"/>
<circle cx="1.57841" cy="1.57841" r="1.57841" transform="matrix(-1 0 0 1 249.122 322.02)" fill="black"/>
<path d="M235.824 315.134C229.445 318.203 229.138 298.17 223.005 317.265" stroke="black" stroke-width="1.57841" stroke-linecap="round" stroke-linejoin="round"/>
<path d="M236.178 342.994C237.676 342.018 241.279 340.731 243.7 343.39" stroke="black" stroke-width="1.57841" stroke-linecap="round" stroke-linejoin="round"/>
<path d="M241.755 312.731C243.576 315.31 247.059 314.768 248.304 311.971" stroke="black" stroke-width="1.57841" stroke-linecap="round" stroke-linejoin="round"/>
<path d="M203.874 367.268V364.637L222.815 367.268L229.129 372.529L221.763 375.686L220.71 379.895L223.867 388.839V395.153L214.923 379.895L203.874 367.268Z" fill="#F5B896"/>
<path d="M222.815 376.212C220.711 375.791 220.184 378.842 220.184 380.421L219.132 373.581C221.658 373.581 227.901 372.528 230.181 372.002C230.006 370.599 229.865 367.793 230.707 367.793C231.549 367.793 232.812 369.196 233.338 369.898V383.051C230.707 383.051 225.446 376.738 222.815 376.212Z" fill="white" stroke="black" stroke-width="1.57841" stroke-linecap="round" stroke-linejoin="round"/>
<path d="M214.234 379.609C214.339 379.91 214.396 380.187 214.396 380.421L214.234 379.609C213.629 377.872 211.454 375.327 209.661 375.686C207.03 376.212 200.717 378.843 198.086 378.843L200.19 366.215C200.717 365.514 201.979 364.111 202.821 364.111C203.663 364.111 203.523 365.865 203.347 367.268C205.978 370.424 210.292 372.529 212.818 372.529L214.234 379.609Z" fill="white"/>
<path d="M214.396 380.421C214.396 378.843 211.765 375.265 209.661 375.686C207.03 376.212 200.717 378.843 198.086 378.843L200.19 366.215C200.717 365.514 201.979 364.111 202.821 364.111C203.663 364.111 203.523 365.865 203.347 367.268C205.978 370.424 210.292 372.529 212.818 372.529L214.396 380.421ZM214.396 380.421C216.501 384.63 221.867 385.261 224.393 400.414" stroke="black" stroke-width="1.57841" stroke-linecap="round" stroke-linejoin="round"/>
<path d="M220.183 380.947C221.236 384.63 225.445 387.261 224.393 400.414" stroke="black" stroke-width="1.57841" stroke-linecap="round" stroke-linejoin="round"/>
<path d="M377.167 5.54236L377.167 5.54196C378.558 2.99259 381.505 1.58759 384.661 1.58759C387.817 1.58759 390.765 2.99259 392.156 5.54196L392.156 5.54226L482.634 171.272L482.636 171.276C483.316 172.515 483.652 173.899 483.614 175.296C483.576 176.693 483.166 178.06 482.419 179.263C481.671 180.467 480.611 181.468 479.338 182.165C478.064 182.861 476.622 183.228 475.153 183.225H475.15H294.173L294.17 183.225C292.7 183.227 291.257 182.861 289.982 182.164C288.707 181.467 287.646 180.465 286.898 179.26C286.15 178.056 285.738 176.688 285.7 175.29C285.661 173.892 285.997 172.505 286.677 171.265L286.678 171.263L377.167 5.54236Z" fill="white" stroke="black" stroke-width="3.17519"/>
<path d="M379.264 26.5135L379.264 26.5131C380.259 24.6229 382.371 23.5695 384.66 23.5695C386.95 23.5695 389.061 24.6229 390.056 26.5131L390.057 26.5134L459.289 157.929L459.291 157.933C459.786 158.868 460.032 159.916 460.005 160.976C459.977 162.036 459.676 163.07 459.133 163.977C458.589 164.884 457.821 165.634 456.905 166.153C455.989 166.672 454.955 166.944 453.904 166.941H453.9H315.42L315.417 166.942C314.365 166.944 313.33 166.672 312.413 166.152L311.631 167.533L312.413 166.152C311.496 165.633 310.727 164.882 310.183 163.974L308.823 164.79L310.183 163.974C309.639 163.066 309.338 162.031 309.309 160.971C309.281 159.91 309.527 158.86 310.023 157.924L310.024 157.922L379.264 26.5135Z" fill="#465173" stroke="black" stroke-width="3.17519"/>
<path d="M391.473 65.1531C391.478 64.7284 391.314 64.3192 391.015 64.0169C390.717 63.7146 390.31 63.5445 389.885 63.5445H379.428C379.003 63.5445 378.596 63.7146 378.298 64.0169C378 64.3192 377.835 64.7284 377.84 65.1531L378.609 123.217C378.621 124.085 379.328 124.783 380.197 124.783H389.116C389.985 124.783 390.692 124.085 390.704 123.217L391.473 65.1531ZM388.949 146.952L388.959 146.946C390.228 146.152 391.243 145.096 391.988 143.796C392.774 142.469 393.164 141.008 393.164 139.447C393.164 137.087 392.324 135.02 390.676 133.329C389.028 131.638 386.994 130.759 384.657 130.759C382.319 130.759 380.286 131.638 378.637 133.329C376.99 135.02 376.149 137.087 376.149 139.447C376.149 141.807 376.99 143.875 378.637 145.565C380.286 147.256 382.319 148.135 384.657 148.135C386.212 148.135 387.657 147.748 388.949 146.952Z" fill="white" stroke="black" stroke-width="3.17519" stroke-linejoin="round"/>
<path d="M309.012 202.683H470.591V243.472H309.025L286.476 222.78L309.012 202.683Z" fill="white" stroke="black" stroke-width="3.17519"/>
<path d="M606.449 561.323C606.595 561.78 607.046 562.069 607.523 562.011L619.051 560.61L617.123 567.469L607.179 566.693C606.882 566.67 606.59 566.78 606.383 566.994C606.175 567.208 606.073 567.503 606.105 567.799C606.271 569.344 605.332 570.657 603.139 571.762C600.958 572.861 597.827 573.579 594.38 573.966C590.952 574.351 587.294 574.4 584.115 574.21C580.906 574.019 578.284 573.591 576.877 573.07C573.574 571.846 570.246 571.738 565.442 571.928C564.098 571.981 562.635 572.058 561.015 572.142C556.813 572.362 551.561 572.637 544.614 572.698C535.783 572.775 531.376 569.942 528.907 566.933C527.649 565.4 526.853 563.773 526.242 562.327C526.089 561.965 525.948 561.617 525.813 561.282L525.784 561.21C525.661 560.903 525.541 560.605 525.424 560.328C525.34 560.131 525.254 559.933 525.164 559.741C525.549 559.644 526.059 559.576 526.702 559.541C528.035 559.468 529.779 559.541 531.844 559.665C532.495 559.704 533.175 559.749 533.88 559.795C537.602 560.037 542.008 560.325 546.392 560.147C546.41 560.147 546.428 560.145 546.446 560.144C551.797 559.636 555.927 559.557 558.711 559.603C560.103 559.626 561.158 559.681 561.862 559.729C562.213 559.754 562.477 559.776 562.651 559.793C562.718 559.799 562.771 559.804 562.812 559.808C562.824 559.81 562.834 559.811 562.844 559.812L562.889 559.817L562.899 559.818L562.9 559.818C562.901 559.818 562.901 559.818 562.901 559.818C562.901 559.818 562.901 559.818 562.901 559.818L562.901 559.818L562.901 559.818C563.387 559.876 563.843 559.574 563.98 559.104C564.117 558.634 563.894 558.134 563.453 557.922C561.087 556.781 558.882 554.754 556.814 552.115C554.751 549.483 552.865 546.295 551.122 542.903C549.38 539.513 547.795 535.947 546.321 532.562C546.082 532.016 545.847 531.473 545.614 530.937C544.656 528.728 543.742 526.622 542.866 524.744C544.044 524.825 545.446 525.159 547.007 525.724C549.225 526.528 551.653 527.757 554.021 529.206C558.788 532.125 563.133 535.828 564.974 538.539C568.223 543.323 573.933 547.516 576.376 549.021C576.398 549.035 576.42 549.048 576.443 549.059C578.07 549.897 583.601 551.951 593.3 553.888C598.018 554.83 601.207 556.335 603.268 557.791C605.354 559.266 606.233 560.651 606.449 561.323Z" fill="#E74F4F" stroke="black" stroke-width="2.00281" stroke-linecap="round" stroke-linejoin="round"/>
<path d="M606.513 566.649V561.764L618.725 560.136L617.504 566.649H606.513Z" fill="black"/>
</svg>
